<svg width="93" height="12" viewBox="0 0 93 12" fill="none" xmlns="http://www.w3.org/2000/svg">
<g opacity="0.3" clip-path="url(#clip0_65_160244)">
<path d="M23.4276 0.542347L15.6788 11.289C15.523 11.5055 15.3153 11.6831 15.0731 11.8068C14.8309 11.9305 14.5612 11.9968 14.2868 12.0001H6.64932C3.21108 12.0001 0.209002 9.30679 0.199722 6.01346C0.197892 5.2244 0.358569 4.44277 0.672544 3.71327C0.98652 2.98378 1.44762 2.32077 2.02947 1.76221C2.61132 1.20364 3.30249 0.76048 4.06338 0.458118C4.82427 0.155757 5.63994 0.000135779 6.46371 0.000137727H11.8554C11.8895 -8.63749e-05 11.923 0.00869326 11.9522 0.0255012C11.9814 0.0423092 12.0053 0.0664818 12.0211 0.0954068C12.0369 0.124332 12.0441 0.156871 12.0419 0.189455C12.0397 0.222039 12.0281 0.253425 12.0085 0.28014L11.3543 1.16903L9.82771 3.28901C9.78482 3.35141 9.72621 3.40246 9.65728 3.43742C9.58834 3.47238 9.51131 3.49012 9.43332 3.48902H6.15284C5.89809 3.48797 5.64465 3.52393 5.40116 3.59568C4.79592 3.76284 4.27449 4.13456 3.93356 4.6419C3.59262 5.14924 3.45532 5.75777 3.5471 6.35468C3.63888 6.9516 3.95351 7.4964 4.43266 7.88805C4.91182 8.2797 5.52298 8.49163 6.15284 8.48457C6.6251 8.4847 7.0903 8.37471 7.50825 8.16409C7.92619 7.95347 8.28432 7.64856 8.55171 7.27569L13.4608 0.471248C13.5663 0.322834 13.7082 0.201471 13.874 0.117786C14.0399 0.0341018 14.2246 -0.00935783 14.412 -0.00875984H17.326C17.3917 -0.0084337 17.456 0.00902312 17.5121 0.041723C17.5683 0.0744229 17.6141 0.121142 17.6446 0.176868C17.6751 0.232594 17.6892 0.295226 17.6854 0.358048C17.6816 0.42087 17.66 0.481517 17.6229 0.533477L12.3658 7.8268C12.3285 7.89133 12.3085 7.96375 12.3077 8.03752C12.3069 8.11129 12.3253 8.18409 12.3612 8.24935C12.3971 8.31461 12.4494 8.37029 12.5134 8.41135C12.5774 8.45242 12.651 8.47757 12.7277 8.48457H13.2567C13.328 8.48522 13.3984 8.46892 13.4616 8.43712C13.5248 8.40532 13.5787 8.35902 13.6186 8.30236L19.2655 0.471248C19.371 0.322834 19.5128 0.201471 19.6787 0.117786C19.8445 0.0341018 20.0292 -0.00935783 20.2167 -0.00875984H23.1306C23.1978 -0.00959587 23.2639 0.00752282 23.3216 0.0406651C23.3792 0.0738073 23.4261 0.121658 23.4569 0.178876C23.4877 0.236094 23.5013 0.300414 23.4961 0.364613C23.491 0.428811 23.4672 0.49035 23.4276 0.542347Z" fill="#5F6369"/>
<path d="M6.1019 7.94206C7.22176 7.94206 8.12958 7.0725 8.12958 5.99984C8.12958 4.92718 7.22176 4.05762 6.1019 4.05762C4.98204 4.05762 4.07422 4.92718 4.07422 5.99984C4.07422 7.0725 4.98204 7.94206 6.1019 7.94206Z" fill="#5F6369"/>
<path d="M64.3618 10.7466C63.6333 11.7066 62.5429 11.9954 61.2808 11.711C60.7004 11.5972 60.1702 11.3161 59.7613 10.9054C59.3524 10.4946 59.0844 9.97398 58.9933 9.41322C58.9134 8.997 58.8777 8.5741 58.8866 8.15099C58.8866 6.88877 58.8866 5.62654 58.8866 4.36876C58.8866 3.73321 59.2624 3.32878 59.8378 3.33323C60.4131 3.33767 60.7379 3.71545 60.7426 4.35989C60.7426 5.69323 60.7426 7.02656 60.7426 8.39101C60.7396 8.66286 60.7771 8.93374 60.8539 9.19545C60.9311 9.46392 61.1024 9.69877 61.3389 9.86063C61.5755 10.0225 61.863 10.1015 62.1531 10.0843C62.4564 10.0819 62.7498 9.9806 62.9851 9.79726C63.2203 9.61391 63.3835 9.35936 63.4477 9.07544C63.4974 8.86106 63.5192 8.64163 63.5126 8.42212C63.5126 7.02657 63.5126 5.62654 63.5126 4.23099C63.5027 4.02108 63.5731 3.81491 63.7107 3.65123C63.8483 3.48756 64.0435 3.37763 64.2597 3.3421C64.4647 3.29944 64.6789 3.32785 64.8642 3.42226C65.0494 3.51666 65.1936 3.67095 65.2712 3.85767C65.3343 4.03795 65.3626 4.2277 65.3547 4.41767C65.3547 5.79101 65.3547 7.1599 65.3547 8.53323C65.3547 9.38212 65.7538 9.9021 66.4544 10.0354C66.632 10.079 66.817 10.0866 66.9978 10.0575C67.1786 10.0285 67.351 9.96354 67.5039 9.86684C67.6569 9.77013 67.7871 9.64383 67.886 9.49604C67.985 9.34826 68.0505 9.18227 68.0784 9.00876C68.1164 8.79296 68.1335 8.57426 68.1295 8.35544C68.1295 6.98211 68.1295 5.61322 68.1295 4.23989C68.1185 4.0338 68.185 3.83078 68.3169 3.66767C68.4489 3.50457 68.6376 3.39221 68.8486 3.351C69.0538 3.31043 69.2673 3.33755 69.4543 3.42793C69.6413 3.5183 69.7909 3.66662 69.8787 3.84877C69.9378 3.97152 69.9694 4.10474 69.9715 4.23989C69.9715 5.77766 70.004 7.31099 69.9715 8.84432C69.9736 9.32027 69.8559 9.78969 69.6286 10.2129C69.4012 10.6361 69.0708 11.0006 68.6653 11.2757C68.2598 11.5508 67.7912 11.7283 67.2989 11.7932C66.8067 11.8582 66.3053 11.8086 65.8373 11.6488C65.3086 11.4073 64.813 11.1043 64.3618 10.7466Z" fill="#5F6369"/>
<path d="M24.541 5.97335C24.5454 5.09735 24.5965 4.22212 24.6941 3.35112C24.9818 1.6 26.5501 0.328901 28.55 0.164457C29.4375 0.0991836 30.3233 0.310035 31.0757 0.765667C31.8281 1.2213 32.4069 1.89737 32.726 2.69335C33.0554 3.55557 32.6007 4.2178 31.7284 4.08891C31.4857 4.02383 31.2681 3.89256 31.102 3.71111C30.9498 3.52997 30.8191 3.33321 30.7122 3.12444C30.4697 2.71908 30.094 2.40201 29.6436 2.2227C29.1932 2.04338 28.6935 2.01191 28.2225 2.13321C27.7514 2.2545 27.3356 2.52172 27.0398 2.89319C26.744 3.26466 26.5849 3.71948 26.5873 4.18667C26.5873 5.40445 26.5873 6.62519 26.5873 7.84889C26.5942 8.32794 26.7699 8.7907 27.086 9.16202C27.4021 9.53334 27.8399 9.79143 28.3284 9.89438C28.8169 9.99733 29.3273 9.93909 29.7769 9.72913C30.2265 9.51917 30.5888 9.16982 30.805 8.73778C30.9267 8.48927 31.0828 8.25757 31.269 8.0489C31.4026 7.91232 31.5791 7.82112 31.7716 7.78905C31.9641 7.75698 32.1623 7.78577 32.3362 7.87111C32.5091 7.92654 32.6563 8.03829 32.7521 8.18689C32.8479 8.33549 32.8862 8.51155 32.8605 8.68445C32.8197 9.03566 32.7145 9.37721 32.5497 9.69335C32.1434 10.4728 31.4777 11.1003 30.6576 11.477C29.8375 11.8536 28.9098 11.9579 28.021 11.7733C27.1197 11.6168 26.298 11.1786 25.6844 10.5272C25.0707 9.87588 24.6996 9.04813 24.6292 8.17335C24.5874 7.44891 24.6292 6.72001 24.6292 5.99112L24.541 5.97335Z" fill="#5F6369"/>
<path d="M76.7228 10.8043C76.677 10.8304 76.6336 10.8602 76.5929 10.8932C76.2009 11.3176 75.6801 11.6139 75.1035 11.7406C74.5269 11.8673 73.9233 11.8181 73.3774 11.5998C72.8007 11.402 72.3003 11.0411 71.9424 10.5649C71.5845 10.0888 71.3859 9.51975 71.3729 8.93314C71.3126 8.01702 71.3126 7.09816 71.3729 6.18203C71.4834 5.32093 71.936 4.53371 72.6367 3.98395C73.3374 3.43419 74.2323 3.16414 75.1354 3.22994C76.0386 3.29573 76.8805 3.69233 77.4864 4.33728C78.0922 4.98222 78.4153 5.82595 78.3886 6.69315C78.3886 8.05315 78.3886 9.4087 78.3886 10.7643C78.3886 11.4265 77.9895 11.7731 77.377 11.6798C77.0244 11.6131 76.8899 11.462 76.7228 10.8043ZM76.5186 7.53316C76.5186 7.15094 76.5186 6.7687 76.5186 6.38204C76.4913 5.98162 76.3039 5.6067 75.9954 5.33522C75.6869 5.06373 75.281 4.91653 74.8622 4.92424C74.443 4.91577 74.0372 5.06513 73.7318 5.34021C73.4264 5.61529 73.2458 5.99416 73.2289 6.39538C73.2057 7.13316 73.2057 7.87538 73.2289 8.6176C73.2337 8.81683 73.2796 9.01315 73.3639 9.19532C73.4483 9.37749 73.5694 9.5419 73.7203 9.67905C73.8713 9.81619 74.0491 9.92338 74.2434 9.99445C74.4378 10.0655 74.6449 10.0991 74.8529 10.0931C75.2785 10.1052 75.692 9.95618 76.0038 9.67834C76.3156 9.40051 76.5005 9.01623 76.5186 8.60871C76.5279 8.24871 76.5186 7.88871 76.5186 7.53316Z" fill="#5F6369"/>
<path d="M87.7937 8.12465C87.7204 8.48441 87.768 8.85717 87.9298 9.18937C88.0915 9.52158 88.359 9.79613 88.6939 9.97355C89.0524 10.1365 89.455 10.1885 89.8457 10.1224C90.2365 10.0563 90.5961 9.87534 90.8747 9.60466C90.9882 9.47948 91.1325 9.38343 91.2945 9.32522C91.4566 9.26701 91.6313 9.24848 91.8027 9.27132C91.9096 9.27967 92.0131 9.31111 92.1055 9.36328C92.1979 9.41545 92.2767 9.487 92.3361 9.57254C92.3955 9.65808 92.4339 9.75539 92.4484 9.85718C92.4629 9.95896 92.4531 10.0626 92.4198 10.1602C92.33 10.4053 92.1895 10.6305 92.0069 10.8224C91.5088 11.2795 90.8862 11.5925 90.2105 11.7253C89.5349 11.8582 88.8339 11.8056 88.1881 11.5735C87.5464 11.3448 86.992 10.9354 86.5978 10.3991C86.2035 9.86289 85.988 9.2249 85.9795 8.56909C85.9795 7.87132 85.9795 7.16911 85.9795 6.47133C85.983 6.03448 86.0774 5.60268 86.2571 5.20115C86.4368 4.79962 86.6982 4.4364 87.026 4.13271C87.3539 3.82901 87.7416 3.59092 88.1666 3.43235C88.5916 3.27377 89.0453 3.19786 89.5012 3.20909C90.4205 3.21125 91.3023 3.55804 91.958 4.17524C92.6136 4.79244 92.9909 5.63097 93.0091 6.51131C93.0091 6.77354 93.0091 7.03132 93.0091 7.29354C93.0091 7.8891 92.791 8.11576 92.16 8.1202C90.9582 8.1202 89.7564 8.1202 88.5547 8.1202L87.7937 8.12465ZM91.1763 6.72022C91.2437 6.40021 91.208 6.06811 91.0737 5.76804C90.9394 5.46797 90.713 5.21411 90.4246 5.0402C90.1486 4.85288 89.8186 4.75228 89.4804 4.75228C89.1421 4.75228 88.8121 4.85288 88.5361 5.0402C88.2528 5.2193 88.0299 5.4735 87.8948 5.77181C87.7597 6.07012 87.7181 6.39966 87.7752 6.72022H91.1763Z" fill="#5F6369"/>
<path d="M44.8737 7.68906C44.8515 8.32943 44.7661 8.96634 44.6185 9.59127C44.3538 10.323 43.8327 10.9444 43.1437 11.3498C42.4548 11.7551 41.6405 11.9193 40.8394 11.8146C40.0384 11.7098 39.2999 11.3425 38.7495 10.7752C38.1992 10.2078 37.8711 9.47533 37.8209 8.70238C37.7791 7.90881 37.7791 7.11373 37.8209 6.32016C37.8787 5.52917 38.2267 4.78326 38.8033 4.21434C39.38 3.64543 40.1481 3.29018 40.9718 3.21144C41.7955 3.1327 42.6218 3.33552 43.3044 3.78406C43.9871 4.2326 44.4821 4.89794 44.702 5.66239C44.8124 6.33285 44.8698 7.01033 44.8737 7.68906ZM39.6583 7.51572C39.6583 7.85794 39.6583 8.20016 39.6583 8.54239C39.665 8.93758 39.8251 9.31624 40.1073 9.60461C40.3894 9.89299 40.7736 10.0704 41.1849 10.1024C41.3887 10.1278 41.5958 10.114 41.794 10.0618C41.9922 10.0096 42.1776 9.91999 42.3392 9.7983C42.5008 9.67661 42.6354 9.52525 42.7352 9.3531C42.835 9.18094 42.8979 8.99146 42.9202 8.79572C43.006 7.96516 43.006 7.12851 42.9202 6.29795C42.8858 5.90806 42.694 5.54642 42.3855 5.28994C42.077 5.03347 41.6762 4.90238 41.2684 4.9246C40.8699 4.93465 40.4886 5.0816 40.1939 5.33861C39.8991 5.59562 39.7107 5.94558 39.663 6.32461C39.6343 6.72109 39.6312 7.11888 39.6537 7.51572H39.6583Z" fill="#5F6369"/>
<path d="M34.4845 5.92022C34.4845 4.36022 34.4845 2.80909 34.4845 1.23575C34.4845 0.591309 34.8464 0.200195 35.4125 0.20464C35.5465 0.203281 35.6793 0.229776 35.8017 0.282276C35.924 0.334777 36.0331 0.41206 36.1213 0.508785C36.2094 0.605509 36.2747 0.719381 36.3126 0.842579C36.3504 0.965777 36.3599 1.09537 36.3405 1.22243C36.3405 4.37503 36.3405 7.52612 36.3405 10.6757C36.3577 10.8018 36.3466 10.9299 36.3077 11.0515C36.2689 11.1731 36.2033 11.2852 36.1153 11.3804C36.0274 11.4756 35.9191 11.5517 35.7979 11.6034C35.6766 11.6551 35.5452 11.6813 35.4125 11.6802C34.8186 11.6802 34.4845 11.3069 34.4845 10.6447C34.4798 9.07133 34.4845 7.49355 34.4845 5.92022Z" fill="#5F6369"/>
<path d="M79.9104 8.26234C79.8524 7.3328 79.8524 6.40078 79.9104 5.47124C80.0914 4.02235 81.2096 3.19568 82.7362 3.2179C83.217 3.20076 83.6954 3.28962 84.1347 3.47764C84.5739 3.66567 84.9622 3.94783 85.2696 4.30235C85.4012 4.4417 85.4834 4.61742 85.5042 4.80428C85.5251 4.99113 85.4835 5.17949 85.3856 5.34233C85.3191 5.48979 85.1999 5.60971 85.0494 5.68058C84.8988 5.75144 84.7269 5.76863 84.5643 5.72903C84.3643 5.66269 84.1765 5.5667 84.0076 5.44457C83.8168 5.30456 83.6134 5.18111 83.3997 5.07568C82.4485 4.71123 81.7154 5.169 81.7015 6.14678C81.7015 7.65344 81.7015 9.16013 81.7015 10.6712C81.7015 11.2535 81.4045 11.6224 80.9127 11.6712C80.7745 11.6924 80.6331 11.6833 80.4991 11.6447C80.3651 11.6061 80.242 11.539 80.1389 11.4483C80.0358 11.3577 79.9555 11.246 79.9038 11.1214C79.8522 10.9968 79.8307 10.8627 79.8408 10.729C79.8408 9.9068 79.8408 9.08456 79.8408 8.26234H79.9104Z" fill="#5F6369"/>
<path d="M51.5694 2.50658C51.226 2.82214 50.7667 2.77323 50.3027 2.39989C50.1099 2.23865 49.8903 2.10946 49.653 2.01768C49.4783 1.93238 49.2832 1.89297 49.0874 1.90348C48.8916 1.91398 48.7022 1.97404 48.5386 2.07749C48.3749 2.18095 48.2428 2.32411 48.1558 2.4924C48.0687 2.66068 48.0298 2.84805 48.043 3.03545C48.043 3.39545 48.043 4.1199 48.043 4.90657V8.90657C48.043 9.49768 48.043 10.0888 48.043 10.6843C48.043 11.2799 47.6903 11.6843 47.115 11.6843C46.9827 11.6853 46.8517 11.6592 46.7308 11.6078C46.61 11.5563 46.502 11.4807 46.4141 11.386C46.3262 11.2913 46.2605 11.1797 46.2213 11.0587C46.1821 10.9377 46.1704 10.8101 46.187 10.6843V3.04879C46.187 1.03546 47.6903 -0.137885 49.7644 0.231004C50.462 0.342915 51.0979 0.682019 51.5647 1.19102C51.6565 1.2764 51.7295 1.37849 51.7796 1.49128C51.8296 1.60408 51.8556 1.72532 51.856 1.84787C51.8565 1.97041 51.8313 2.09182 51.7821 2.20493C51.7329 2.31805 51.6605 2.42061 51.5694 2.50658Z" fill="#5F6369"/>
<path d="M58.014 9.35555C57.6752 9.03999 57.2159 9.08888 56.7519 9.46221C56.5582 9.62451 56.3369 9.75379 56.0976 9.84443C55.9233 9.93011 55.7282 9.9698 55.5325 9.95942C55.3368 9.94903 55.1475 9.88896 54.9841 9.78535C54.8207 9.68174 54.689 9.53832 54.6026 9.36985C54.5161 9.20137 54.478 9.01389 54.4922 8.82666C54.4922 8.46666 54.4922 7.74221 54.4922 6.95554V2.95554C54.4922 2.36443 54.4922 1.77332 54.4922 1.17776C54.4922 0.582206 54.1395 0.177762 53.5642 0.177762C53.4319 0.176767 53.301 0.20289 53.1801 0.254341C53.0592 0.305791 52.9512 0.381376 52.8633 0.476074C52.7754 0.570773 52.7097 0.682394 52.6705 0.803413C52.6314 0.924432 52.6196 1.05205 52.6362 1.17776V8.7911C52.6362 10.8044 54.1396 11.9778 56.209 11.6089C56.9079 11.4969 57.5452 11.1579 58.014 10.6489C58.1927 10.4772 58.2931 10.2447 58.2931 10.0022C58.2931 9.75976 58.1927 9.52719 58.014 9.35555Z" fill="#5F6369"/>
<path d="M55.4527 3.71094H51.9123C51.4664 3.71094 51.105 4.05717 51.105 4.48427V4.48872C51.105 4.91582 51.4664 5.26205 51.9123 5.26205H55.4527C55.8986 5.26205 56.26 4.91582 56.26 4.48872V4.48427C56.26 4.05717 55.8986 3.71094 55.4527 3.71094Z" fill="#5F6369"/>
<path d="M49.5043 3.71094H45.3933C44.9474 3.71094 44.5859 4.05717 44.5859 4.48427V4.48872C44.5859 4.91582 44.9474 5.26205 45.3933 5.26205H49.5043C49.9502 5.26205 50.3117 4.91582 50.3117 4.48872V4.48427C50.3117 4.05717 49.9502 3.71094 49.5043 3.71094Z" fill="#5F6369"/>
</g>
<defs>
<clipPath id="clip0_65_160244">
<rect width="92.8" height="12" fill="white" transform="translate(0.199707)"/>
</clipPath>
</defs>
</svg>
