<svg width="155" height="14" viewBox="0 0 155 14" fill="none" xmlns="http://www.w3.org/2000/svg">
<path opacity="0.3" d="M11.7726 10.235C11.5592 10.235 11.3526 10.205 11.1526 10.145C10.9592 10.085 10.7926 10.005 10.6526 9.90502V12.445H9.78258V5.37502H10.5126L10.6426 5.98502C10.8226 5.81835 11.0259 5.67502 11.2526 5.55502C11.4792 5.43502 11.7459 5.37502 12.0526 5.37502C12.6792 5.37502 13.1726 5.57502 13.5326 5.97502C13.8926 6.37502 14.0726 6.94835 14.0726 7.69502C14.0726 8.13502 14.0059 8.51502 13.8726 8.83502C13.7459 9.15502 13.5726 9.41835 13.3526 9.62502C13.1392 9.83169 12.8926 9.98502 12.6126 10.085C12.3392 10.185 12.0592 10.235 11.7726 10.235ZM11.8626 6.09502C11.5826 6.09502 11.3392 6.16502 11.1326 6.30502C10.9259 6.43835 10.7659 6.57502 10.6526 6.71502V9.22502C10.8059 9.33835 10.9692 9.42169 11.1426 9.47502C11.3159 9.52835 11.4892 9.55502 11.6626 9.55502C11.8426 9.55502 12.0226 9.52502 12.2026 9.46502C12.3826 9.39835 12.5426 9.29169 12.6826 9.14502C12.8226 8.99835 12.9359 8.80835 13.0226 8.57502C13.1092 8.34169 13.1526 8.05502 13.1526 7.71502C13.1526 7.21502 13.0459 6.82169 12.8326 6.53502C12.6259 6.24169 12.3026 6.09502 11.8626 6.09502ZM19.4451 7.74502C19.4451 8.13835 19.3851 8.49169 19.2651 8.80502C19.1451 9.11169 18.9784 9.37169 18.7651 9.58502C18.5584 9.79835 18.3151 9.96169 18.0351 10.075C17.7551 10.1817 17.4517 10.235 17.1251 10.235C16.7984 10.235 16.4951 10.185 16.2151 10.085C15.9417 9.97835 15.7017 9.82502 15.4951 9.62502C15.2951 9.41835 15.1351 9.16835 15.0151 8.87502C14.9017 8.57502 14.8451 8.23169 14.8451 7.84502C14.8451 7.45169 14.9051 7.10169 15.0251 6.79502C15.1451 6.48835 15.3084 6.23169 15.5151 6.02502C15.7284 5.81169 15.9751 5.65169 16.2551 5.54502C16.5351 5.43169 16.8384 5.37502 17.1651 5.37502C17.4917 5.37502 17.7917 5.42502 18.0651 5.52502C18.3451 5.62502 18.5851 5.77502 18.7851 5.97502C18.9917 6.17502 19.1517 6.42502 19.2651 6.72502C19.3851 7.01835 19.4451 7.35835 19.4451 7.74502ZM18.5251 7.79502C18.5251 7.48169 18.4851 7.21502 18.4051 6.99502C18.3251 6.77502 18.2184 6.59502 18.0851 6.45502C17.9584 6.31502 17.8117 6.21502 17.6451 6.15502C17.4784 6.08835 17.3084 6.05502 17.1351 6.05502C16.9617 6.05502 16.7917 6.08169 16.6251 6.13502C16.4584 6.18835 16.3117 6.28169 16.1851 6.41502C16.0584 6.54835 15.9551 6.72835 15.8751 6.95502C15.8017 7.17502 15.7651 7.45502 15.7651 7.79502C15.7651 8.10835 15.8051 8.37835 15.8851 8.60502C15.9651 8.82502 16.0684 9.00502 16.1951 9.14502C16.3284 9.28502 16.4784 9.38835 16.6451 9.45502C16.8117 9.52169 16.9817 9.55502 17.1551 9.55502C17.3284 9.55502 17.4984 9.52835 17.6651 9.47502C17.8317 9.41502 17.9784 9.31835 18.1051 9.18502C18.2317 9.04502 18.3317 8.86502 18.4051 8.64502C18.4851 8.41835 18.5251 8.13502 18.5251 7.79502ZM19.8971 5.44502H20.8371L21.6371 8.40502L21.8171 9.45502H21.8571L22.0771 8.40502L22.8871 5.44502H23.8371L24.6671 8.40502L24.8771 9.45502H24.9171L25.1371 8.40502L25.9171 5.44502H26.8171L25.3871 10.145H24.3871L23.5871 7.26502L23.3571 6.10502L23.1171 7.26502L22.2971 10.145H21.3471L19.8971 5.44502ZM31.5374 7.89502H28.1674V7.93502C28.1674 8.45502 28.3074 8.85502 28.5874 9.13502C28.8741 9.41502 29.2608 9.55502 29.7474 9.55502C30.0008 9.55502 30.2241 9.53502 30.4174 9.49502C30.6174 9.45502 30.8341 9.38835 31.0674 9.29502L31.2474 9.94502C31.0541 10.0317 30.8241 10.1017 30.5574 10.155C30.2974 10.2084 30.0174 10.235 29.7174 10.235C29.3774 10.235 29.0574 10.1884 28.7574 10.095C28.4641 10.0017 28.2041 9.85835 27.9774 9.66502C27.7508 9.46502 27.5708 9.21169 27.4374 8.90502C27.3108 8.59835 27.2474 8.23169 27.2474 7.80502C27.2474 7.43835 27.3008 7.10502 27.4074 6.80502C27.5208 6.50502 27.6774 6.25169 27.8774 6.04502C28.0774 5.83169 28.3174 5.66835 28.5974 5.55502C28.8841 5.43502 29.2041 5.37502 29.5574 5.37502C29.8574 5.37502 30.1274 5.42502 30.3674 5.52502C30.6141 5.62502 30.8241 5.76502 30.9974 5.94502C31.1708 6.12502 31.3041 6.34169 31.3974 6.59502C31.4908 6.84835 31.5374 7.12835 31.5374 7.43502V7.89502ZM30.6274 7.26502C30.6274 7.09169 30.6041 6.93169 30.5574 6.78502C30.5174 6.63169 30.4508 6.49835 30.3574 6.38502C30.2708 6.27169 30.1574 6.18169 30.0174 6.11502C29.8774 6.04835 29.7074 6.01502 29.5074 6.01502C29.1408 6.01502 28.8408 6.13169 28.6074 6.36502C28.3808 6.59835 28.2408 6.90502 28.1874 7.28502L30.6274 7.26502ZM32.5565 10.145V5.44502H33.2165L33.3665 6.38502C33.4798 6.08502 33.6665 5.84169 33.9265 5.65502C34.1865 5.46835 34.4865 5.37502 34.8265 5.37502C34.9998 5.37502 35.1432 5.38835 35.2565 5.41502C35.3698 5.44169 35.4732 5.47502 35.5665 5.51502L35.3965 6.28502C35.3165 6.24502 35.2265 6.21169 35.1265 6.18502C35.0332 6.15835 34.9198 6.14502 34.7865 6.14502C34.5932 6.14502 34.4132 6.17835 34.2465 6.24502C34.0865 6.31169 33.9432 6.41169 33.8165 6.54502C33.6965 6.67835 33.5998 6.84502 33.5265 7.04502C33.4598 7.23835 33.4265 7.46169 33.4265 7.71502V10.145H32.5565ZM40.053 7.89502H36.683V7.93502C36.683 8.45502 36.823 8.85502 37.103 9.13502C37.3897 9.41502 37.7764 9.55502 38.263 9.55502C38.5164 9.55502 38.7397 9.53502 38.933 9.49502C39.133 9.45502 39.3497 9.38835 39.583 9.29502L39.763 9.94502C39.5697 10.0317 39.3397 10.1017 39.073 10.155C38.813 10.2084 38.533 10.235 38.233 10.235C37.893 10.235 37.573 10.1884 37.273 10.095C36.9797 10.0017 36.7197 9.85835 36.493 9.66502C36.2664 9.46502 36.0864 9.21169 35.953 8.90502C35.8264 8.59835 35.763 8.23169 35.763 7.80502C35.763 7.43835 35.8164 7.10502 35.923 6.80502C36.0364 6.50502 36.193 6.25169 36.393 6.04502C36.593 5.83169 36.833 5.66835 37.113 5.55502C37.3997 5.43502 37.7197 5.37502 38.073 5.37502C38.373 5.37502 38.643 5.42502 38.883 5.52502C39.1297 5.62502 39.3397 5.76502 39.513 5.94502C39.6864 6.12502 39.8197 6.34169 39.913 6.59502C40.0064 6.84835 40.053 7.12835 40.053 7.43502V7.89502ZM39.143 7.26502C39.143 7.09169 39.1197 6.93169 39.073 6.78502C39.033 6.63169 38.9664 6.49835 38.873 6.38502C38.7864 6.27169 38.673 6.18169 38.533 6.11502C38.393 6.04835 38.223 6.01502 38.023 6.01502C37.6564 6.01502 37.3564 6.13169 37.123 6.36502C36.8964 6.59835 36.7564 6.90502 36.703 7.28502L39.143 7.26502ZM44.2609 3.04502H45.1409V10.145H44.4009L44.2909 9.62502H44.2609C44.0543 9.83835 43.8443 9.99502 43.6309 10.095C43.4243 10.1884 43.1609 10.235 42.8409 10.235C42.5876 10.235 42.3409 10.185 42.1009 10.085C41.8676 9.98502 41.6576 9.83502 41.4709 9.63502C41.2843 9.43502 41.1343 9.18502 41.0209 8.88502C40.9076 8.57835 40.8509 8.21835 40.8509 7.80502C40.8509 7.43835 40.8976 7.10502 40.9909 6.80502C41.0909 6.50502 41.2309 6.24835 41.4109 6.03502C41.5909 5.82169 41.8109 5.65835 42.0709 5.54502C42.3309 5.43169 42.6276 5.37502 42.9609 5.37502C43.2076 5.37502 43.4409 5.41502 43.6609 5.49502C43.8876 5.56835 44.0876 5.68169 44.2609 5.83502V3.04502ZM44.2609 6.57502C43.9476 6.22169 43.5776 6.04502 43.1509 6.04502C42.9709 6.04502 42.7943 6.07835 42.6209 6.14502C42.4543 6.20502 42.3043 6.30502 42.1709 6.44502C42.0443 6.58502 41.9409 6.76502 41.8609 6.98502C41.7809 7.20502 41.7409 7.46835 41.7409 7.77502C41.7409 8.09502 41.7776 8.36835 41.8509 8.59502C41.9243 8.81502 42.0209 8.99835 42.1409 9.14502C42.2676 9.28502 42.4076 9.38835 42.5609 9.45502C42.7209 9.52169 42.8809 9.55502 43.0409 9.55502C43.5409 9.55502 43.9476 9.33835 44.2609 8.90502V6.57502ZM53.0591 7.79502C53.0591 8.16835 53.0024 8.50502 52.8891 8.80502C52.7757 9.10502 52.6224 9.36169 52.4291 9.57502C52.2357 9.78835 52.0091 9.95169 51.7491 10.065C51.4891 10.1784 51.2124 10.235 50.9191 10.235C50.6124 10.235 50.3424 10.1917 50.1091 10.105C49.8824 10.0184 49.6691 9.88502 49.4691 9.70502H49.4491L49.3591 10.145H48.7291V3.04502H49.5991V6.03502C49.8124 5.80835 50.0457 5.64169 50.2991 5.53502C50.5591 5.42835 50.8291 5.37502 51.1091 5.37502C51.7091 5.37502 52.1824 5.58835 52.5291 6.01502C52.8824 6.44169 53.0591 7.03502 53.0591 7.79502ZM52.1391 7.80502C52.1391 7.28502 52.0291 6.87169 51.8091 6.56502C51.5891 6.25169 51.2791 6.09502 50.8791 6.09502C50.6257 6.09502 50.3957 6.15169 50.1891 6.26502C49.9824 6.37835 49.7857 6.53835 49.5991 6.74502V9.02502C49.7391 9.18502 49.8957 9.31502 50.0691 9.41502C50.2491 9.50835 50.4557 9.55502 50.6891 9.55502C50.8757 9.55502 51.0557 9.52169 51.2291 9.45502C51.4091 9.38835 51.5657 9.28502 51.6991 9.14502C51.8324 8.99835 51.9391 8.81502 52.0191 8.59502C52.0991 8.37502 52.1391 8.11169 52.1391 7.80502ZM53.4806 5.44502H54.4206L55.4206 8.13502L55.7606 9.25502H55.7806L56.1206 8.13502L57.0306 5.44502H57.9306L56.1206 10.545C55.9206 11.1117 55.6673 11.555 55.3606 11.875C55.0606 12.195 54.7006 12.4284 54.2806 12.575L53.9006 11.875C54.214 11.755 54.4906 11.5817 54.7306 11.355C54.9773 11.1284 55.1673 10.815 55.3006 10.415L55.3906 10.145L53.4806 5.44502Z" fill="#5F6369"/>
<g opacity="0.3" clip-path="url(#clip0_67_874)">
<path d="M85.4281 1.39782L77.6793 12.1445C77.5235 12.361 77.3158 12.5385 77.0736 12.6623C76.8314 12.786 76.5617 12.8523 76.2873 12.8556H68.6498C65.2116 12.8556 62.2095 10.1623 62.2002 6.86893C62.1984 6.07987 62.3591 5.29823 62.673 4.56874C62.987 3.83925 63.4481 3.17624 64.03 2.61768C64.6118 2.05911 65.303 1.61595 66.0639 1.31359C66.8248 1.01123 67.6404 0.855605 68.4642 0.855606H73.8559C73.89 0.855382 73.9235 0.864162 73.9527 0.88097C73.9819 0.897778 74.0058 0.921951 74.0216 0.950876C74.0374 0.979801 74.0446 1.01234 74.0424 1.04492C74.0401 1.07751 74.0286 1.10889 74.009 1.13561L73.3548 2.0245L71.8282 4.14448C71.7853 4.20688 71.7267 4.25793 71.6578 4.29289C71.5888 4.32785 71.5118 4.34559 71.4338 4.34448H68.1533C67.8986 4.34344 67.6451 4.3794 67.4016 4.45115C66.7964 4.61831 66.275 4.99003 65.934 5.49737C65.5931 6.00471 65.4558 6.61324 65.5476 7.21015C65.6394 7.80707 65.954 8.35187 66.4331 8.74352C66.9123 9.13517 67.5235 9.3471 68.1533 9.34004C68.6256 9.34016 69.0908 9.23018 69.5087 9.01956C69.9267 8.80894 70.2848 8.50403 70.5522 8.13116L75.4613 1.32672C75.5668 1.1783 75.7087 1.05694 75.8745 0.973255C76.0404 0.889571 76.2251 0.846111 76.4125 0.846709H79.3265C79.3921 0.847035 79.4565 0.864492 79.5126 0.897192C79.5688 0.929892 79.6146 0.976611 79.6451 1.03234C79.6756 1.08806 79.6897 1.15069 79.6859 1.21352C79.6821 1.27634 79.6605 1.33699 79.6234 1.38895L74.3663 8.68227C74.329 8.7468 74.309 8.81922 74.3082 8.89299C74.3074 8.96676 74.3258 9.03956 74.3617 9.10482C74.3976 9.17008 74.4499 9.22575 74.5139 9.26682C74.5779 9.30789 74.6515 9.33304 74.7282 9.34004H75.2572C75.3285 9.34069 75.3989 9.32439 75.4621 9.29259C75.5252 9.26079 75.5792 9.21449 75.6191 9.15783L81.266 1.32672C81.3715 1.1783 81.5133 1.05694 81.6792 0.973255C81.845 0.889571 82.0297 0.846111 82.2172 0.846709H85.1311C85.1983 0.845873 85.2644 0.862992 85.3221 0.896134C85.3797 0.929276 85.4266 0.977126 85.4574 1.03434C85.4882 1.09156 85.5018 1.15588 85.4966 1.22008C85.4914 1.28428 85.4677 1.34582 85.4281 1.39782Z" fill="#5F6369"/>
<path d="M68.1024 8.79753C69.2222 8.79753 70.1301 7.92797 70.1301 6.85531C70.1301 5.78265 69.2222 4.91309 68.1024 4.91309C66.9825 4.91309 66.0747 5.78265 66.0747 6.85531C66.0747 7.92797 66.9825 8.79753 68.1024 8.79753Z" fill="#5F6369"/>
<path d="M126.362 11.602C125.634 12.562 124.543 12.8509 123.281 12.5665C122.701 12.4526 122.171 12.1715 121.762 11.7608C121.353 11.3501 121.085 10.8295 120.994 10.2687C120.914 9.85247 120.878 9.42957 120.887 9.00646C120.887 7.74424 120.887 6.48201 120.887 5.22423C120.887 4.58868 121.263 4.18425 121.838 4.1887C122.414 4.19314 122.738 4.57092 122.743 5.21536C122.743 6.5487 122.743 7.88203 122.743 9.24648C122.74 9.51833 122.778 9.78921 122.854 10.0509C122.932 10.3194 123.103 10.5542 123.339 10.7161C123.576 10.8779 123.863 10.9569 124.154 10.9398C124.457 10.9373 124.75 10.8361 124.986 10.6527C125.221 10.4694 125.384 10.2148 125.448 9.93091C125.498 9.71653 125.52 9.4971 125.513 9.27759C125.513 7.88204 125.513 6.48201 125.513 5.08646C125.503 4.87655 125.574 4.67038 125.711 4.5067C125.849 4.34302 126.044 4.23309 126.26 4.19757C126.465 4.1549 126.679 4.18332 126.865 4.27773C127.05 4.37213 127.194 4.52642 127.272 4.71314C127.335 4.89342 127.363 5.08317 127.355 5.27314C127.355 6.64648 127.355 8.01537 127.355 9.3887C127.355 10.2376 127.754 10.7576 128.455 10.8909C128.632 10.9345 128.818 10.942 128.998 10.913C129.179 10.884 129.351 10.819 129.504 10.7223C129.657 10.6256 129.788 10.4993 129.887 10.3515C129.985 10.2037 130.051 10.0377 130.079 9.86423C130.117 9.64842 130.134 9.42973 130.13 9.21091C130.13 7.83758 130.13 6.46869 130.13 5.09535C130.119 4.88927 130.185 4.68625 130.317 4.52314C130.449 4.36004 130.638 4.24768 130.849 4.20647C131.054 4.1659 131.268 4.19302 131.455 4.2834C131.642 4.37377 131.791 4.52209 131.879 4.70424C131.938 4.82698 131.97 4.96021 131.972 5.09535C131.972 6.63313 132.005 8.16646 131.972 9.69979C131.974 10.1757 131.856 10.6452 131.629 11.0684C131.402 11.4916 131.071 11.8561 130.666 12.1312C130.26 12.4063 129.792 12.5838 129.299 12.6487C128.807 12.7136 128.306 12.6641 127.838 12.5042C127.309 12.2628 126.813 11.9598 126.362 11.602Z" fill="#5F6369"/>
<path d="M86.5415 6.82882C86.5459 5.95282 86.597 5.07759 86.6946 4.20658C86.9823 2.45547 88.5506 1.18437 90.5505 1.01993C91.438 0.954652 92.3238 1.1655 93.0762 1.62114C93.8286 2.07677 94.4074 2.75284 94.7265 3.54882C95.0559 4.41104 94.6012 5.07327 93.7289 4.94438C93.4862 4.8793 93.2686 4.74803 93.1025 4.56658C92.9503 4.38544 92.8196 4.18868 92.7127 3.97991C92.4702 3.57455 92.0945 3.25748 91.6441 3.07817C91.1937 2.89885 90.694 2.86738 90.2229 2.98868C89.7519 3.10997 89.3361 3.37719 89.0403 3.74866C88.7445 4.12013 88.5853 4.57495 88.5878 5.04214C88.5878 6.25992 88.5878 7.48066 88.5878 8.70436C88.5947 9.18341 88.7704 9.64616 89.0865 10.0175C89.4025 10.3888 89.8404 10.6469 90.3289 10.7499C90.8174 10.8528 91.3278 10.7946 91.7774 10.5846C92.227 10.3746 92.5893 10.0253 92.8055 9.59325C92.9272 9.34474 93.0833 9.11304 93.2695 8.90437C93.4031 8.76779 93.5796 8.67659 93.7721 8.64452C93.9646 8.61245 94.1628 8.64124 94.3367 8.72658C94.5096 8.78201 94.6568 8.89376 94.7526 9.04236C94.8484 9.19096 94.8867 9.36702 94.861 9.53992C94.8202 9.89113 94.715 10.2327 94.5501 10.5488C94.1439 11.3282 93.4782 11.9558 92.6581 12.3325C91.838 12.7091 90.9103 12.8134 90.0215 12.6288C89.1202 12.4722 88.2985 12.034 87.6849 11.3827C87.0712 10.7313 86.7001 9.9036 86.6297 9.02882C86.5879 8.30438 86.6297 7.57547 86.6297 6.84659L86.5415 6.82882Z" fill="#5F6369"/>
<path d="M138.723 11.6597C138.678 11.6859 138.634 11.7156 138.593 11.7486C138.201 12.173 137.681 12.4694 137.104 12.5961C136.527 12.7228 135.924 12.6736 135.378 12.4553C134.801 12.2574 134.301 11.8966 133.943 11.4204C133.585 10.9442 133.386 10.3752 133.373 9.78861C133.313 8.87248 133.313 7.95363 133.373 7.0375C133.484 6.1764 133.936 5.38918 134.637 4.83942C135.338 4.28966 136.233 4.01961 137.136 4.0854C138.039 4.1512 138.881 4.5478 139.487 5.19275C140.093 5.83769 140.416 6.68142 140.389 7.54862C140.389 8.90862 140.389 10.2642 140.389 11.6197C140.389 12.2819 139.99 12.6286 139.378 12.5353C139.025 12.4686 138.89 12.3175 138.723 11.6597ZM138.519 8.38863C138.519 8.00641 138.519 7.62417 138.519 7.2375C138.492 6.83709 138.304 6.46217 137.996 6.19068C137.687 5.91919 137.282 5.772 136.863 5.77971C136.444 5.77124 136.038 5.9206 135.732 6.19568C135.427 6.47075 135.246 6.84963 135.229 7.25085C135.206 7.98863 135.206 8.73085 135.229 9.47307C135.234 9.6723 135.28 9.86862 135.364 10.0508C135.449 10.233 135.57 10.3974 135.721 10.5345C135.872 10.6717 136.05 10.7788 136.244 10.8499C136.438 10.921 136.645 10.9545 136.853 10.9486C137.279 10.9607 137.693 10.8116 138.004 10.5338C138.316 10.256 138.501 9.8717 138.519 9.46418C138.528 9.10418 138.519 8.74418 138.519 8.38863Z" fill="#5F6369"/>
<path d="M149.794 8.98012C149.721 9.33988 149.769 9.71264 149.93 10.0448C150.092 10.377 150.36 10.6516 150.694 10.829C151.053 10.9919 151.455 11.0439 151.846 10.9778C152.237 10.9117 152.597 10.7308 152.875 10.4601C152.989 10.3349 153.133 10.2389 153.295 10.1807C153.457 10.1225 153.632 10.1039 153.803 10.1268C153.91 10.1351 154.014 10.1666 154.106 10.2188C154.198 10.2709 154.277 10.3425 154.337 10.428C154.396 10.5135 154.434 10.6109 154.449 10.7126C154.463 10.8144 154.454 10.918 154.42 11.0157C154.33 11.2608 154.19 11.486 154.007 11.6779C153.509 12.1349 152.887 12.4479 152.211 12.5808C151.535 12.7137 150.834 12.6611 150.189 12.429C149.547 12.2003 148.992 11.7909 148.598 11.2546C148.204 10.7184 147.989 10.0804 147.98 9.42456C147.98 8.72678 147.98 8.02458 147.98 7.3268C147.984 6.88995 148.078 6.45815 148.258 6.05662C148.437 5.65508 148.699 5.29187 149.027 4.98817C149.354 4.68448 149.742 4.44639 150.167 4.28782C150.592 4.12924 151.046 4.05333 151.502 4.06456C152.421 4.06671 153.303 4.41351 153.958 5.03071C154.614 5.64791 154.991 6.48644 155.01 7.36678C155.01 7.629 155.01 7.88679 155.01 8.14901C155.01 8.74456 154.791 8.97122 154.16 8.97567C152.959 8.97567 151.757 8.97567 150.555 8.97567L149.794 8.98012ZM153.177 7.57569C153.244 7.25568 153.208 6.92358 153.074 6.62351C152.94 6.32344 152.714 6.06958 152.425 5.89567C152.149 5.70835 151.819 5.60775 151.481 5.60775C151.143 5.60775 150.813 5.70835 150.537 5.89567C150.253 6.07477 150.03 6.32897 149.895 6.62728C149.76 6.92559 149.719 7.25513 149.776 7.57569H153.177Z" fill="#5F6369"/>
<path d="M106.874 8.54453C106.852 9.1849 106.767 9.82181 106.619 10.4467C106.354 11.1785 105.833 11.7999 105.144 12.2052C104.455 12.6106 103.641 12.7748 102.84 12.67C102.039 12.5653 101.3 12.198 100.75 11.6306C100.2 11.0633 99.8716 10.3308 99.8214 9.55785C99.7796 8.76428 99.7796 7.9692 99.8214 7.17563C99.8792 6.38464 100.227 5.63873 100.804 5.06981C101.38 4.5009 102.149 4.14565 102.972 4.06691C103.796 3.98817 104.622 4.19099 105.305 4.63953C105.988 5.08806 106.483 5.75341 106.702 6.51786C106.813 7.18832 106.87 7.8658 106.874 8.54453ZM101.659 8.37119C101.659 8.71341 101.659 9.05563 101.659 9.39785C101.666 9.79305 101.826 10.1717 102.108 10.4601C102.39 10.7485 102.774 10.9259 103.185 10.9579C103.389 10.9833 103.596 10.9695 103.794 10.9172C103.993 10.865 104.178 10.7755 104.34 10.6538C104.501 10.5321 104.636 10.3807 104.736 10.2086C104.835 10.0364 104.898 9.84693 104.921 9.65119C105.007 8.82063 105.007 7.98398 104.921 7.15342C104.886 6.76353 104.694 6.40189 104.386 6.14541C104.078 5.88893 103.677 5.75784 103.269 5.78007C102.87 5.79012 102.489 5.93706 102.194 6.19408C101.9 6.45109 101.711 6.80105 101.663 7.18008C101.635 7.57656 101.632 7.97435 101.654 8.37119H101.659Z" fill="#5F6369"/>
<path d="M96.485 6.77568C96.485 5.21568 96.485 3.66456 96.485 2.09122C96.485 1.44678 96.8469 1.05566 97.413 1.06011C97.547 1.05875 97.6798 1.08524 97.8022 1.13775C97.9245 1.19025 98.0336 1.26753 98.1217 1.36425C98.2099 1.46098 98.2752 1.57485 98.313 1.69805C98.3509 1.82125 98.3604 1.95084 98.341 2.0779C98.341 5.2305 98.341 8.38159 98.341 11.5312C98.3582 11.6573 98.3471 11.7854 98.3082 11.907C98.2694 12.0285 98.2038 12.1407 98.1158 12.2359C98.0278 12.3311 97.9196 12.4071 97.7984 12.4588C97.6771 12.5106 97.5457 12.5367 97.413 12.5357C96.8191 12.5357 96.485 12.1624 96.485 11.5001C96.4803 9.9268 96.485 8.34902 96.485 6.77568Z" fill="#5F6369"/>
<path d="M141.911 9.11781C141.853 8.18827 141.853 7.25625 141.911 6.32671C142.092 4.87782 143.21 4.05115 144.737 4.07337C145.217 4.05623 145.696 4.14509 146.135 4.33311C146.574 4.52113 146.963 4.8033 147.27 5.15782C147.402 5.29717 147.484 5.47289 147.505 5.65974C147.526 5.8466 147.484 6.03496 147.386 6.1978C147.32 6.34526 147.2 6.46518 147.05 6.53605C146.899 6.60691 146.727 6.6241 146.565 6.58449C146.365 6.51816 146.177 6.42217 146.008 6.30004C145.817 6.16003 145.614 6.03657 145.4 5.93115C144.449 5.5667 143.716 6.02447 143.702 7.00225C143.702 8.50891 143.702 10.0156 143.702 11.5267C143.702 12.1089 143.405 12.4778 142.913 12.5267C142.775 12.5478 142.634 12.5388 142.5 12.5002C142.366 12.4616 142.242 12.3944 142.139 12.3038C142.036 12.2132 141.956 12.1014 141.904 11.9769C141.853 11.8523 141.831 11.7182 141.841 11.5845C141.841 10.7623 141.841 9.94003 141.841 9.11781H141.911Z" fill="#5F6369"/>
<path d="M113.57 3.36205C113.226 3.67761 112.767 3.6287 112.303 3.25536C112.11 3.09412 111.891 2.96493 111.654 2.87315C111.479 2.78785 111.284 2.74844 111.088 2.75894C110.892 2.76945 110.703 2.82951 110.539 2.93296C110.375 3.03641 110.243 3.17958 110.156 3.34787C110.069 3.51615 110.03 3.70352 110.043 3.89092C110.043 4.25092 110.043 4.97537 110.043 5.76204V9.76204C110.043 10.3531 110.043 10.9443 110.043 11.5398C110.043 12.1354 109.691 12.5398 109.115 12.5398C108.983 12.5408 108.852 12.5147 108.731 12.4633C108.61 12.4118 108.502 12.3362 108.415 12.2415C108.327 12.1468 108.261 12.0352 108.222 11.9142C108.183 11.7932 108.171 11.6655 108.187 11.5398V3.90426C108.187 1.89093 109.691 0.717584 111.765 1.08647C112.462 1.19838 113.098 1.53749 113.565 2.04649C113.657 2.13187 113.73 2.23396 113.78 2.34675C113.83 2.45955 113.856 2.58079 113.857 2.70333C113.857 2.82588 113.832 2.94729 113.783 3.0604C113.733 3.17352 113.661 3.27608 113.57 3.36205Z" fill="#5F6369"/>
<path d="M120.014 10.211C119.676 9.89546 119.216 9.94435 118.752 10.3177C118.559 10.48 118.337 10.6093 118.098 10.6999C117.924 10.7856 117.729 10.8253 117.533 10.8149C117.337 10.8045 117.148 10.7444 116.985 10.6408C116.821 10.5372 116.689 10.3938 116.603 10.2253C116.517 10.0568 116.478 9.86936 116.493 9.68213C116.493 9.32213 116.493 8.59768 116.493 7.81101V3.81101C116.493 3.2199 116.493 2.62879 116.493 2.03323C116.493 1.43767 116.14 1.03323 115.565 1.03323C115.432 1.03224 115.301 1.05836 115.181 1.10981C115.06 1.16126 114.952 1.23685 114.864 1.33154C114.776 1.42624 114.71 1.53786 114.671 1.65888C114.632 1.7799 114.62 1.90752 114.637 2.03323V9.64657C114.637 11.6599 116.14 12.8332 118.209 12.4644C118.908 12.3524 119.546 12.0134 120.014 11.5043C120.193 11.3327 120.294 11.1002 120.294 10.8577C120.294 10.6152 120.193 10.3827 120.014 10.211Z" fill="#5F6369"/>
<path d="M117.453 4.56641H113.913C113.467 4.56641 113.105 4.91264 113.105 5.33974V5.34418C113.105 5.77128 113.467 6.11752 113.913 6.11752H117.453C117.899 6.11752 118.261 5.77128 118.261 5.34418V5.33974C118.261 4.91264 117.899 4.56641 117.453 4.56641Z" fill="#5F6369"/>
<path d="M111.505 4.56641H107.394C106.948 4.56641 106.586 4.91264 106.586 5.33974V5.34418C106.586 5.77128 106.948 6.11752 107.394 6.11752H111.505C111.951 6.11752 112.312 5.77128 112.312 5.34418V5.33974C112.312 4.91264 111.951 4.56641 111.505 4.56641Z" fill="#5F6369"/>
</g>
<defs>
<clipPath id="clip0_67_874">
<rect width="92.8" height="12" fill="white" transform="translate(62.2002 0.855469)"/>
</clipPath>
</defs>
</svg>
