<svg width="360" height="201" viewBox="0 0 360 201" fill="none" xmlns="http://www.w3.org/2000/svg">
<path d="M465.526 -41.343L301.553 185.959C298.257 190.538 293.862 194.294 288.736 196.911C283.611 199.528 277.905 200.93 272.097 201H110.481C37.7238 201 -25.8033 144.033 -25.9997 74.3761C-26.0384 57.6869 -22.6383 41.1545 -15.9943 25.7251C-9.3502 10.2956 0.407185 -3.72757 12.7197 -15.5417C25.0322 -27.3559 39.6581 -36.7292 55.7594 -43.1245C71.8606 -49.5197 89.121 -52.8112 106.553 -52.8112H220.647C221.368 -52.8159 222.077 -52.6302 222.695 -52.2747C223.314 -51.9192 223.818 -51.408 224.153 -50.7962C224.488 -50.1844 224.64 -49.4961 224.593 -48.8069C224.546 -48.1178 224.302 -47.4539 223.887 -46.8889L210.043 -28.0881L177.739 16.7515C176.831 18.0714 175.591 19.1512 174.132 19.8905C172.673 20.6299 171.043 21.0052 169.393 20.9818H99.9745C94.5838 20.9596 89.2207 21.7202 84.0682 23.2378C71.2607 26.7735 60.2267 34.6358 53.0122 45.3665C45.7977 56.0971 42.8922 68.9681 44.8344 81.5934C46.7765 94.2187 53.4344 105.742 63.5738 114.025C73.7132 122.309 86.6461 126.792 99.9745 126.642C109.968 126.645 119.812 124.319 128.656 119.864C137.501 115.409 145.079 108.96 150.737 101.074L254.62 -42.8468C256.852 -45.9859 259.854 -48.5528 263.363 -50.3228C266.872 -52.0928 270.781 -53.012 274.748 -52.9994H336.41C337.8 -52.9925 339.162 -52.6233 340.349 -51.9316C341.537 -51.24 342.507 -50.2518 343.152 -49.0732C343.798 -47.8945 344.097 -46.5698 344.016 -45.2411C343.935 -43.9123 343.478 -42.6296 342.694 -41.5306L231.447 112.73C230.658 114.095 230.235 115.627 230.218 117.187C230.201 118.747 230.591 120.287 231.35 121.667C232.11 123.048 233.217 124.225 234.571 125.094C235.925 125.962 237.483 126.494 239.106 126.642H250.299C251.809 126.656 253.299 126.312 254.636 125.639C255.972 124.966 257.114 123.987 257.958 122.788L377.452 -42.8468C379.684 -45.9859 382.686 -48.5528 386.196 -50.3228C389.705 -52.0928 393.614 -53.012 397.58 -52.9994H459.242C460.665 -53.0171 462.064 -52.655 463.283 -51.954C464.503 -51.253 465.495 -50.2409 466.147 -49.0307C466.8 -47.8205 467.087 -46.4601 466.977 -45.1022C466.867 -43.7444 466.365 -42.4427 465.526 -41.343Z" fill="url(#paint0_linear_165_1101)"/>
<defs>
<linearGradient id="paint0_linear_165_1101" x1="199.028" y1="648.074" x2="246.182" y2="29.3719" gradientUnits="userSpaceOnUse">
<stop stop-color="white"/>
<stop offset="0.938037" stop-color="white" stop-opacity="0"/>
</linearGradient>
</defs>
</svg>
