<svg width="46" height="32" viewBox="0 0 46 32" fill="none" xmlns="http://www.w3.org/2000/svg">
<rect x="0.5" width="45" height="32" rx="2" fill="#1E88E5"/>
<path d="M0.5 29.3357C0.5 28.495 0.896712 27.7037 1.57028 27.2008L22.4017 11.6467C22.7566 11.3817 23.2434 11.3817 23.5983 11.6467L44.4297 27.2008C45.1033 27.7037 45.5 28.495 45.5 29.3357C45.5 30.8071 44.3072 32 42.8357 32L3.16429 32C1.69284 32 0.5 30.8071 0.5 29.3357Z" fill="#2196F3"/>
<path d="M45.5 2.66434C45.5 3.50495 45.1033 4.29626 44.4297 4.79919L23.5983 20.3533C23.2434 20.6183 22.7566 20.6183 22.4017 20.3533L1.57028 4.79918C0.896715 4.29626 0.500001 3.50495 0.500001 2.66434C0.500002 1.19289 1.69285 4.52337e-05 3.16429 4.538e-05L42.8357 4.93261e-05C44.3072 4.94724e-05 45.5 1.19289 45.5 2.66434Z" fill="#48A6F1"/>
</svg>
