<svg width="36" height="36" viewBox="0 0 36 36" fill="none" xmlns="http://www.w3.org/2000/svg">
<rect width="36" height="36" rx="18" fill="#FF6F1B" fill-opacity="0.1"/>
<path d="M22.068 11.6208C19.7807 12.5363 17.3391 13.0045 14.8755 13H14.2505C13.1527 12.9984 12.0945 13.4095 11.2858 14.1518C10.4771 14.894 9.97696 15.9132 9.88465 17.007C9.79233 18.1009 10.1146 19.1894 10.7875 20.0567C11.4603 20.9241 12.4347 21.5067 13.5171 21.6891C13.793 22.8181 14.1776 23.9177 14.6655 24.9725C15.0521 25.8091 16.0605 26.0725 16.8171 25.6358L17.3646 25.32C18.098 24.8966 18.3355 23.9925 18.008 23.2633C17.8111 22.826 17.6365 22.379 17.4846 21.9241C19.083 22.1391 20.618 22.5491 22.068 23.1291C22.6875 21.274 23.0025 19.3308 23.0005 17.375C23.0005 15.3633 22.673 13.4291 22.068 11.6208ZM23.2171 11.1166C23.9035 13.1317 24.2526 15.2462 24.2505 17.375C24.2528 19.6467 23.8551 21.9012 23.0755 24.035C23.0472 24.1121 23.0345 24.194 23.0379 24.276C23.0413 24.358 23.0608 24.4386 23.0954 24.5131C23.1299 24.5876 23.1788 24.6545 23.2393 24.7101C23.2997 24.7657 23.3705 24.8088 23.4476 24.8371C23.5246 24.8653 23.6066 24.8781 23.6886 24.8746C23.7706 24.8712 23.8512 24.8517 23.9257 24.8171C24.0001 24.7826 24.0671 24.7337 24.1227 24.6733C24.1783 24.6128 24.2214 24.5421 24.2496 24.465C24.8814 22.7399 25.2781 20.9376 25.4288 19.1066C25.8765 18.6414 26.1262 18.0206 26.1255 17.375C26.1255 16.7025 25.8596 16.0916 25.4288 15.6433C25.2771 13.8125 24.8805 12.0103 24.2496 10.285C24.2214 10.2079 24.1783 10.1371 24.1227 10.0767C24.0671 10.0162 24.0001 9.96736 23.9257 9.93281C23.7752 9.86303 23.6033 9.85586 23.4476 9.91289C23.2918 9.96991 23.1652 10.0864 23.0954 10.2369C23.0256 10.3873 23.0184 10.5593 23.0755 10.715C23.1246 10.8483 23.1721 10.9816 23.2171 11.1166Z" fill="#FF6F1B"/>
</svg>
