<svg width="91" height="24" viewBox="0 0 91 24" fill="none" xmlns="http://www.w3.org/2000/svg">
<path opacity="0.3" d="M44.7726 9.09C44.5592 9.09 44.3526 9.06 44.1526 9C43.9592 8.94 43.7926 8.86 43.6526 8.76V11.3H42.7826V4.23H43.5126L43.6426 4.84C43.8226 4.67333 44.0259 4.53 44.2526 4.41C44.4792 4.29 44.7459 4.23 45.0526 4.23C45.6792 4.23 46.1726 4.43 46.5326 4.83C46.8926 5.23 47.0726 5.80333 47.0726 6.55C47.0726 6.99 47.0059 7.37 46.8726 7.69C46.7459 8.01 46.5726 8.27333 46.3526 8.48C46.1392 8.68667 45.8926 8.84 45.6126 8.94C45.3392 9.04 45.0592 9.09 44.7726 9.09ZM44.8626 4.95C44.5826 4.95 44.3392 5.02 44.1326 5.16C43.9259 5.29333 43.7659 5.43 43.6526 5.57V8.08C43.8059 8.19333 43.9692 8.27667 44.1426 8.33C44.3159 8.38333 44.4892 8.41 44.6626 8.41C44.8426 8.41 45.0226 8.38 45.2026 8.32C45.3826 8.25333 45.5426 8.14667 45.6826 8C45.8226 7.85333 45.9359 7.66333 46.0226 7.43C46.1092 7.19667 46.1526 6.91 46.1526 6.57C46.1526 6.07 46.0459 5.67667 45.8326 5.39C45.6259 5.09667 45.3026 4.95 44.8626 4.95ZM52.4451 6.6C52.4451 6.99333 52.3851 7.34667 52.2651 7.66C52.1451 7.96667 51.9784 8.22667 51.7651 8.44C51.5584 8.65333 51.3151 8.81667 51.0351 8.93C50.7551 9.03667 50.4517 9.09 50.1251 9.09C49.7984 9.09 49.4951 9.04 49.2151 8.94C48.9417 8.83333 48.7017 8.68 48.4951 8.48C48.2951 8.27333 48.1351 8.02333 48.0151 7.73C47.9017 7.43 47.8451 7.08667 47.8451 6.7C47.8451 6.30667 47.9051 5.95667 48.0251 5.65C48.1451 5.34333 48.3084 5.08667 48.5151 4.88C48.7284 4.66667 48.9751 4.50667 49.2551 4.4C49.5351 4.28667 49.8384 4.23 50.1651 4.23C50.4917 4.23 50.7917 4.28 51.0651 4.38C51.3451 4.48 51.5851 4.63 51.7851 4.83C51.9917 5.03 52.1517 5.28 52.2651 5.58C52.3851 5.87333 52.4451 6.21333 52.4451 6.6ZM51.5251 6.65C51.5251 6.33667 51.4851 6.07 51.4051 5.85C51.3251 5.63 51.2184 5.45 51.0851 5.31C50.9584 5.17 50.8117 5.07 50.6451 5.01C50.4784 4.94333 50.3084 4.91 50.1351 4.91C49.9617 4.91 49.7917 4.93667 49.6251 4.99C49.4584 5.04333 49.3117 5.13667 49.1851 5.27C49.0584 5.40333 48.9551 5.58333 48.8751 5.81C48.8017 6.03 48.7651 6.31 48.7651 6.65C48.7651 6.96333 48.8051 7.23333 48.8851 7.46C48.9651 7.68 49.0684 7.86 49.1951 8C49.3284 8.14 49.4784 8.24333 49.6451 8.31C49.8117 8.37667 49.9817 8.41 50.1551 8.41C50.3284 8.41 50.4984 8.38333 50.6651 8.33C50.8317 8.27 50.9784 8.17333 51.1051 8.04C51.2317 7.9 51.3317 7.72 51.4051 7.5C51.4851 7.27333 51.5251 6.99 51.5251 6.65ZM52.8971 4.3H53.8371L54.6371 7.26L54.8171 8.31H54.8571L55.0771 7.26L55.8871 4.3H56.8371L57.6671 7.26L57.8771 8.31H57.9171L58.1371 7.26L58.9171 4.3H59.8171L58.3871 9H57.3871L56.5871 6.12L56.3571 4.96L56.1171 6.12L55.2971 9H54.3471L52.8971 4.3ZM64.5374 6.75H61.1674V6.79C61.1674 7.31 61.3074 7.71 61.5874 7.99C61.8741 8.27 62.2608 8.41 62.7474 8.41C63.0008 8.41 63.2241 8.39 63.4174 8.35C63.6174 8.31 63.8341 8.24333 64.0674 8.15L64.2474 8.8C64.0541 8.88667 63.8241 8.95667 63.5574 9.01C63.2974 9.06333 63.0174 9.09 62.7174 9.09C62.3774 9.09 62.0574 9.04333 61.7574 8.95C61.4641 8.85667 61.2041 8.71333 60.9774 8.52C60.7508 8.32 60.5708 8.06667 60.4374 7.76C60.3108 7.45333 60.2474 7.08667 60.2474 6.66C60.2474 6.29333 60.3008 5.96 60.4074 5.66C60.5208 5.36 60.6774 5.10667 60.8774 4.9C61.0774 4.68667 61.3174 4.52333 61.5974 4.41C61.8841 4.29 62.2041 4.23 62.5574 4.23C62.8574 4.23 63.1274 4.28 63.3674 4.38C63.6141 4.48 63.8241 4.62 63.9974 4.8C64.1708 4.98 64.3041 5.19667 64.3974 5.45C64.4908 5.70333 64.5374 5.98333 64.5374 6.29V6.75ZM63.6274 6.12C63.6274 5.94667 63.6041 5.78667 63.5574 5.64C63.5174 5.48667 63.4508 5.35333 63.3574 5.24C63.2708 5.12667 63.1574 5.03667 63.0174 4.97C62.8774 4.90333 62.7074 4.87 62.5074 4.87C62.1408 4.87 61.8408 4.98667 61.6074 5.22C61.3808 5.45333 61.2408 5.76 61.1874 6.14L63.6274 6.12ZM65.5565 9V4.3H66.2165L66.3665 5.24C66.4798 4.94 66.6665 4.69667 66.9265 4.51C67.1865 4.32333 67.4865 4.23 67.8265 4.23C67.9998 4.23 68.1432 4.24333 68.2565 4.27C68.3698 4.29667 68.4732 4.33 68.5665 4.37L68.3965 5.14C68.3165 5.1 68.2265 5.06667 68.1265 5.04C68.0332 5.01333 67.9198 5 67.7865 5C67.5932 5 67.4132 5.03333 67.2465 5.1C67.0865 5.16667 66.9432 5.26667 66.8165 5.4C66.6965 5.53333 66.5998 5.7 66.5265 5.9C66.4598 6.09333 66.4265 6.31667 66.4265 6.57V9H65.5565ZM73.053 6.75H69.683V6.79C69.683 7.31 69.823 7.71 70.103 7.99C70.3897 8.27 70.7764 8.41 71.263 8.41C71.5164 8.41 71.7397 8.39 71.933 8.35C72.133 8.31 72.3497 8.24333 72.583 8.15L72.763 8.8C72.5697 8.88667 72.3397 8.95667 72.073 9.01C71.813 9.06333 71.533 9.09 71.233 9.09C70.893 9.09 70.573 9.04333 70.273 8.95C69.9797 8.85667 69.7197 8.71333 69.493 8.52C69.2664 8.32 69.0864 8.06667 68.953 7.76C68.8264 7.45333 68.763 7.08667 68.763 6.66C68.763 6.29333 68.8164 5.96 68.923 5.66C69.0364 5.36 69.193 5.10667 69.393 4.9C69.593 4.68667 69.833 4.52333 70.113 4.41C70.3997 4.29 70.7197 4.23 71.073 4.23C71.373 4.23 71.643 4.28 71.883 4.38C72.1297 4.48 72.3397 4.62 72.513 4.8C72.6864 4.98 72.8197 5.19667 72.913 5.45C73.0064 5.70333 73.053 5.98333 73.053 6.29V6.75ZM72.143 6.12C72.143 5.94667 72.1197 5.78667 72.073 5.64C72.033 5.48667 71.9664 5.35333 71.873 5.24C71.7864 5.12667 71.673 5.03667 71.533 4.97C71.393 4.90333 71.223 4.87 71.023 4.87C70.6564 4.87 70.3564 4.98667 70.123 5.22C69.8964 5.45333 69.7564 5.76 69.703 6.14L72.143 6.12ZM77.2609 1.9H78.1409V9H77.4009L77.2909 8.48H77.2609C77.0543 8.69333 76.8443 8.85 76.6309 8.95C76.4243 9.04333 76.1609 9.09 75.8409 9.09C75.5876 9.09 75.3409 9.04 75.1009 8.94C74.8676 8.84 74.6576 8.69 74.4709 8.49C74.2843 8.29 74.1343 8.04 74.0209 7.74C73.9076 7.43333 73.8509 7.07333 73.8509 6.66C73.8509 6.29333 73.8976 5.96 73.9909 5.66C74.0909 5.36 74.2309 5.10333 74.4109 4.89C74.5909 4.67667 74.8109 4.51333 75.0709 4.4C75.3309 4.28667 75.6276 4.23 75.9609 4.23C76.2076 4.23 76.4409 4.27 76.6609 4.35C76.8876 4.42333 77.0876 4.53667 77.2609 4.69V1.9ZM77.2609 5.43C76.9476 5.07667 76.5776 4.9 76.1509 4.9C75.9709 4.9 75.7943 4.93333 75.6209 5C75.4543 5.06 75.3043 5.16 75.1709 5.3C75.0443 5.44 74.9409 5.62 74.8609 5.84C74.7809 6.06 74.7409 6.32333 74.7409 6.63C74.7409 6.95 74.7776 7.22333 74.8509 7.45C74.9243 7.67 75.0209 7.85333 75.1409 8C75.2676 8.14 75.4076 8.24333 75.5609 8.31C75.7209 8.37667 75.8809 8.41 76.0409 8.41C76.5409 8.41 76.9476 8.19333 77.2609 7.76V5.43ZM86.0591 6.65C86.0591 7.02333 86.0024 7.36 85.8891 7.66C85.7757 7.96 85.6224 8.21667 85.4291 8.43C85.2357 8.64333 85.0091 8.80667 84.7491 8.92C84.4891 9.03333 84.2124 9.09 83.9191 9.09C83.6124 9.09 83.3424 9.04667 83.1091 8.96C82.8824 8.87333 82.6691 8.74 82.4691 8.56H82.4491L82.3591 9H81.7291V1.9H82.5991V4.89C82.8124 4.66333 83.0457 4.49667 83.2991 4.39C83.5591 4.28333 83.8291 4.23 84.1091 4.23C84.7091 4.23 85.1824 4.44333 85.5291 4.87C85.8824 5.29667 86.0591 5.89 86.0591 6.65ZM85.1391 6.66C85.1391 6.14 85.0291 5.72667 84.8091 5.42C84.5891 5.10667 84.2791 4.95 83.8791 4.95C83.6257 4.95 83.3957 5.00667 83.1891 5.12C82.9824 5.23333 82.7857 5.39333 82.5991 5.6V7.88C82.7391 8.04 82.8957 8.17 83.0691 8.27C83.2491 8.36333 83.4557 8.41 83.6891 8.41C83.8757 8.41 84.0557 8.37667 84.2291 8.31C84.4091 8.24333 84.5657 8.14 84.6991 8C84.8324 7.85333 84.9391 7.67 85.0191 7.45C85.0991 7.23 85.1391 6.96667 85.1391 6.66ZM86.4806 4.3H87.4206L88.4206 6.99L88.7606 8.11H88.7806L89.1206 6.99L90.0306 4.3H90.9306L89.1206 9.4C88.9206 9.96667 88.6673 10.41 88.3606 10.73C88.0606 11.05 87.7006 11.2833 87.2806 11.43L86.9006 10.73C87.214 10.61 87.4906 10.4367 87.7306 10.21C87.9773 9.98333 88.1673 9.67 88.3006 9.27L88.3906 9L86.4806 4.3Z" fill="white"/>
<g opacity="0.3" clip-path="url(#clip0_6_7247)">
<path d="M24.3349 13.0354C24.3086 13.0552 24.2888 13.3519 24.2888 13.6947V14.3079H25.5755H26.8622V18.6596V23.0112H27.621H28.3799L28.393 18.6728L28.4128 14.3409L29.7194 14.3211L31.0259 14.3079L31.0061 13.6618L30.9863 13.0222L27.6804 13.0024C25.8658 12.9958 24.3547 13.009 24.3349 13.0354Z" fill="white"/>
<path d="M45.1203 13.0288C45.094 13.0552 45.0742 15.3101 45.0742 18.0464V23.0112H45.7934H46.5192L46.539 21.1453C46.5588 19.3255 46.5654 19.2794 46.7238 18.9563C47.0603 18.2706 47.6542 17.875 48.3272 17.8684C49.0267 17.8684 49.3566 18.1585 49.4886 18.8838C49.5282 19.1079 49.5612 20.0969 49.5612 21.1453V23.0112H50.2936H51.026L50.993 20.8486C50.9667 19.1409 50.9403 18.6068 50.8545 18.264C50.6631 17.5123 50.3134 17.0706 49.6931 16.7871C49.4556 16.6816 49.2576 16.6552 48.7034 16.6486C48.0699 16.6486 47.9775 16.6618 47.6212 16.8398C47.2385 17.0244 46.7766 17.42 46.5852 17.7299C46.4928 17.875 46.4862 17.6574 46.4862 15.4552L46.4928 13.0222L45.8264 13.0024C45.4635 12.9958 45.1467 13.0024 45.1203 13.0288Z" fill="white"/>
<path d="M5.61489 12.3033C4.14342 12.6791 3.37798 13.0747 2.53337 13.9055C1.60298 14.8154 0.91013 16.1143 0.817751 17.1297C0.791357 17.3934 0.745167 17.5648 0.68578 17.5846C0.560408 17.6308 0.560408 18.7648 0.692379 18.811C0.738568 18.8308 0.797955 18.9956 0.824349 19.1736C0.890335 19.6681 1.27305 20.6374 1.62277 21.1978C2.15066 22.0418 3.12064 22.9055 4.00485 23.3143C4.52613 23.5516 5.36415 23.8022 5.63469 23.8022C5.73366 23.8022 5.83264 23.8484 5.85244 23.9011C5.88543 23.9868 6.44631 24 10.3394 24C14.4833 24 14.7935 23.9934 14.9188 23.8813C15.2092 23.6308 15.3411 23.4593 15.9218 22.6088C16.8984 21.1714 17.2943 20.5978 18.0201 19.5495C18.3963 19.0022 18.8978 18.2769 19.1353 17.9275C20.3032 16.2198 20.7189 15.6132 21.1017 15.0659C21.326 14.7363 21.7879 14.0703 22.1178 13.5824C22.4544 13.0945 22.7513 12.6857 22.7843 12.6725C22.8701 12.633 22.8437 12.5341 22.6919 12.3626L22.5467 12.1978H21.0093H19.4718L19.2277 12.5209C19.0891 12.6989 18.8054 13.0879 18.6008 13.3912C18.2049 13.9714 17.9344 14.3604 16.9446 15.7912C16.3111 16.7077 15.8558 17.3604 15.2949 18.178C15.1036 18.4615 14.8396 18.8374 14.7143 19.022C14.5889 19.2 14.2656 19.6681 14.0016 20.0571C13.4606 20.8418 13.3286 20.9341 12.7941 20.8879C12.4576 20.8549 12.2134 20.6835 12.2134 20.4791C12.2134 20.433 12.4708 20.0308 12.7875 19.5758C13.5595 18.4681 14.6153 16.8923 15.5127 15.4945C15.9218 14.8615 16.4893 13.9846 16.773 13.556C17.3669 12.6659 17.4263 12.5143 17.2613 12.3297C17.1491 12.2044 17.0502 12.1978 15.6117 12.1978C14.2392 12.1978 14.0742 12.211 13.9752 12.3099C13.9225 12.3758 13.0448 13.6747 12.0287 15.1978C11.0125 16.7209 10.0161 18.1912 9.81816 18.4615C8.51165 20.2286 8.42587 20.3209 7.80561 20.6308C7.24473 20.9077 6.65746 20.9934 6.08339 20.8747C5.44333 20.7429 4.96163 20.4923 4.56572 20.0901C3.02826 18.5407 3.63533 16.0286 5.72047 15.3165C5.98441 15.2242 6.42651 15.1978 8.22131 15.1714L10.3922 15.1319L10.8409 14.4396C12.0749 12.5077 12.0683 12.5209 11.8307 12.3099C11.7185 12.211 11.4216 12.1978 8.84158 12.2044C6.61787 12.211 5.89863 12.2308 5.61489 12.3033Z" fill="white"/>
<path d="M5.77985 16.3514C5.70067 16.3778 5.60169 16.4503 5.5555 16.5097C5.50931 16.569 5.43013 16.6152 5.39054 16.6152C5.31135 16.6152 5.02102 16.9053 5.02102 16.991C5.02102 17.0108 4.97483 17.0899 4.91544 17.1558C4.69769 17.3866 4.71089 18.9888 4.92864 18.9888C4.98143 18.9888 5.02102 19.0349 5.02102 19.0877C5.02102 19.2262 5.43673 19.6481 5.5687 19.6481C5.62148 19.6481 5.68087 19.6811 5.69407 19.7207C5.70727 19.7602 5.85903 19.8064 6.03059 19.8262C6.20216 19.8459 6.36052 19.8921 6.38032 19.9185C6.42651 19.9976 6.80262 19.991 6.80262 19.9119C6.80262 19.8723 6.9214 19.8459 7.06656 19.8459C7.23813 19.8459 7.3503 19.813 7.3701 19.7536C7.38989 19.7009 7.48227 19.6415 7.58125 19.6152C7.8056 19.5624 8.05635 19.3316 8.05635 19.18C8.05635 19.1207 8.10254 19.0547 8.15532 19.0284C8.21471 19.0086 8.2543 18.9031 8.2543 18.758C8.2543 18.6327 8.28729 18.5273 8.32029 18.5273C8.35988 18.5273 8.38627 18.3163 8.38627 18.0327C8.38627 17.7492 8.35988 17.5382 8.32029 17.5382C8.28729 17.5382 8.2543 17.4327 8.2543 17.3075C8.2543 17.169 8.21471 17.0569 8.16192 17.0371C8.10913 17.0174 8.02995 16.9119 7.99036 16.8064C7.94417 16.6943 7.85839 16.6152 7.78581 16.6152C7.71982 16.6152 7.64064 16.5756 7.61424 16.5295C7.49547 16.3448 7.25132 16.2855 6.59147 16.2921C6.21535 16.2921 5.85243 16.3185 5.77985 16.3514Z" fill="white"/>
<path d="M33.3486 16.7079C31.5406 17.1497 30.5772 18.9431 31.0853 20.9211C31.2436 21.5409 31.4548 21.9167 31.8705 22.3057C32.4973 22.8925 33.243 23.1431 34.3845 23.1431C35.3809 23.1431 36.562 22.8398 36.562 22.5892C36.562 22.5365 36.4697 22.2991 36.3641 22.0552C36.1991 21.6925 36.1463 21.62 36.0474 21.6595C34.9784 22.1277 33.8105 22.1343 33.1242 21.6727C32.8867 21.5145 32.5831 21.0134 32.5039 20.6574L32.4577 20.4398L34.7276 20.4266L36.9909 20.4068L37.0107 19.8464C37.0701 18.0464 36.3047 16.9123 34.8662 16.6815C34.3581 16.5958 33.7709 16.609 33.3486 16.7079ZM34.7276 17.9343C35.2291 18.0793 35.5129 18.442 35.6053 19.0683L35.6514 19.3848H34.0612C33.1902 19.3848 32.4709 19.3585 32.4709 19.3321C32.4709 19.2991 32.5171 19.1211 32.5765 18.9299C32.7019 18.4947 33.1242 18.0464 33.5003 17.9475C33.8434 17.8617 34.4241 17.8552 34.7276 17.9343Z" fill="white"/>
<path d="M40.7521 16.6815C39.7491 16.8925 38.9639 17.4793 38.5746 18.2969C38.3502 18.7782 38.2645 19.1936 38.2645 19.8464C38.2645 20.8024 38.502 21.4815 39.0497 22.0881C39.7029 22.8134 40.4816 23.1431 41.5571 23.1431C41.9662 23.1431 42.349 23.1035 42.5733 23.0376C42.9362 22.9255 43.5565 22.642 43.5565 22.5826C43.5565 22.5101 43.088 21.6266 43.055 21.6266C43.0286 21.6266 42.8043 21.6991 42.5535 21.7914C41.9333 22.0156 41.28 22.0156 40.8181 21.798C40.1978 21.5145 39.8679 20.9475 39.8085 20.0771C39.7491 19.0881 40.0395 18.409 40.6597 18.0991C41.2998 17.776 42.0388 17.8156 42.5997 18.198C42.9296 18.4222 42.8966 18.442 43.2662 17.7497L43.5235 17.2683L43.3321 17.1101C42.8768 16.7475 41.5109 16.5167 40.7521 16.6815Z" fill="white"/>
<path d="M54.972 16.7211C53.8634 17.0178 53.0452 17.7694 52.7153 18.8112C52.5371 19.3585 52.5239 20.3211 52.6889 20.8683C53.1046 22.2793 54.3187 23.1431 55.876 23.1431C57.4464 23.1431 58.7199 22.1409 59.0301 20.6574C59.1488 20.0969 59.1488 19.7343 59.0367 19.1738C58.7067 17.6244 57.4464 16.6222 55.8298 16.6222C55.5592 16.6222 55.1699 16.6683 54.972 16.7211ZM56.2653 17.8881C56.7404 18.0134 57.1099 18.3365 57.3672 18.8508C57.5652 19.253 57.5784 19.3321 57.5784 19.9453C57.5784 20.5321 57.5586 20.6442 57.3936 20.9804C57.1561 21.4683 56.7866 21.7914 56.3247 21.9233C54.9918 22.3123 53.8304 21.0134 54.1142 19.4508C54.2593 18.6398 54.6354 18.1387 55.2491 17.9277C55.6714 17.7826 55.8298 17.776 56.2653 17.8881Z" fill="white"/>
<path d="M72.3393 16.6814C71.5673 16.8462 70.6765 17.5386 70.3598 18.2177C69.9243 19.1539 69.8979 20.4331 70.2938 21.3627C70.6171 22.121 71.3628 22.7605 72.2074 23.0177C72.9002 23.2287 73.7382 23.1825 74.3255 22.8924C74.596 22.7539 74.8666 22.5561 75.0513 22.3517C75.2163 22.1671 75.3681 22.0221 75.3879 22.0221C75.4077 22.0221 75.4275 22.2462 75.4275 22.5166V23.0111H76.1203H76.8131V19.9122V16.8133H76.1203H75.4275V17.0243C75.4275 17.1429 75.4077 17.3473 75.3879 17.4792L75.3483 17.7166L75.0513 17.4265C74.8864 17.2616 74.5498 17.0309 74.2661 16.899C73.8372 16.6946 73.692 16.6616 73.1971 16.6418C72.8804 16.6287 72.4977 16.6484 72.3393 16.6814ZM73.9494 17.9671C74.3717 18.0924 74.7874 18.4484 75.0183 18.8836C75.1833 19.1869 75.1965 19.2858 75.1965 19.9451C75.1965 20.5649 75.1767 20.71 75.0513 20.9407C74.8468 21.3298 74.5301 21.6199 74.1143 21.8111C73.8108 21.9495 73.692 21.9693 73.2565 21.9429C72.4713 21.8968 72.0292 21.6001 71.7059 20.9012C71.6003 20.6638 71.5673 20.466 71.5673 19.9451C71.5673 19.332 71.5805 19.2528 71.7785 18.8572C72.1942 18.0265 73.019 17.6902 73.9494 17.9671Z" fill="white"/>
<path d="M81.5575 16.7079C81.0296 16.8925 80.6997 17.1761 80.4159 17.6706L80.2444 17.9673V17.3871V16.8134H79.5185H78.7927V19.9123V23.0112H79.5185H80.2444V21.2244C80.2444 20.0706 80.2708 19.3453 80.317 19.1805C80.5083 18.5409 81.1946 18.1057 82.0062 18.0991C82.3889 18.0991 82.4879 18.0794 82.4945 18.0002C82.4945 17.9475 82.5341 17.631 82.5803 17.3079C82.6462 16.8794 82.6462 16.7013 82.5935 16.6684C82.4747 16.5893 81.8148 16.6156 81.5575 16.7079Z" fill="white"/>
<path d="M85.8531 16.6879C85.3978 16.7737 84.639 17.189 84.2827 17.5451C83.669 18.1583 83.4117 18.8638 83.4117 19.9121C83.4117 20.9671 83.6822 21.6923 84.2893 22.2857C84.705 22.6879 85.1405 22.9253 85.7014 23.044C86.3084 23.1759 87.3972 23.1693 87.9845 23.0374C88.5124 22.9121 89.0204 22.7143 89.0204 22.6286C89.0204 22.4506 88.6311 21.6594 88.5519 21.6726C88.4992 21.6791 88.288 21.7517 88.0703 21.8242C87.1926 22.1407 86.0181 22.0484 85.51 21.6264C85.2725 21.4286 85.0217 20.9802 84.9491 20.6308L84.9161 20.4396H87.1597H89.4032L89.4427 20.2879C89.5153 20.0242 89.4823 19.2264 89.3834 18.7583C89.2052 17.9209 88.7433 17.2418 88.1362 16.9319C87.6018 16.6616 86.5724 16.5495 85.8531 16.6879ZM87.186 17.9341C87.7073 18.0791 88.0307 18.5209 88.0307 19.0879V19.3846H86.48C84.7314 19.3846 84.8436 19.4242 85.0613 18.8374C85.2131 18.4286 85.5364 18.0923 85.8927 17.9671C86.2029 17.855 86.8429 17.8418 87.186 17.9341Z" fill="white"/>
<path d="M59.8549 16.8661C59.8549 16.8925 60.0001 17.2617 60.1782 17.6771C60.3564 18.0859 60.7589 19.0354 61.0756 19.7804C62.5075 23.1628 62.4349 23.0112 62.5867 23.0112C62.6989 23.0046 62.877 22.7211 63.5831 21.3826C64.0582 20.4925 64.4739 19.7145 64.5135 19.6617C64.5728 19.5826 64.7642 19.8991 65.5032 21.2837C66.2555 22.7013 66.4468 23.0046 66.559 23.0112C66.6778 23.0112 66.7966 22.7804 67.397 21.343C67.7863 20.4332 68.367 19.0485 68.6969 18.2705C69.0203 17.4925 69.2908 16.8463 69.2908 16.8332C69.2908 16.82 68.9477 16.82 68.5254 16.8266L67.7599 16.8463L67.1397 18.4947C66.7966 19.398 66.493 20.2024 66.46 20.2749C66.4138 20.3804 66.2357 20.0705 65.5032 18.6068C65.0083 17.6178 64.5794 16.82 64.553 16.8398C64.5201 16.8595 64.1175 17.6573 63.649 18.62C63.1806 19.5826 62.778 20.3738 62.7582 20.3738C62.7319 20.3738 62.4151 19.5826 62.0522 18.6068L61.3923 16.8463L60.6269 16.8266C60.198 16.82 59.8549 16.8332 59.8549 16.8661Z" fill="white"/>
</g>
<defs>
<clipPath id="clip0_6_7247">
<rect width="90.4" height="12" fill="white" transform="translate(0.600006 12)"/>
</clipPath>
</defs>
</svg>
