<svg width="93" height="24" viewBox="0 0 93 24" fill="none" xmlns="http://www.w3.org/2000/svg">
<path opacity="0.3" d="M46.7721 9.09C46.5588 9.09 46.3521 9.06 46.1521 9C45.9588 8.94 45.7921 8.86 45.6521 8.76V11.3H44.7821V4.23H45.5121L45.6421 4.84C45.8221 4.67333 46.0254 4.53 46.2521 4.41C46.4788 4.29 46.7454 4.23 47.0521 4.23C47.6788 4.23 48.1721 4.43 48.5321 4.83C48.8921 5.23 49.0721 5.80333 49.0721 6.55C49.0721 6.99 49.0054 7.37 48.8721 7.69C48.7454 8.01 48.5721 8.27333 48.3521 8.48C48.1388 8.68667 47.8921 8.84 47.6121 8.94C47.3388 9.04 47.0588 9.09 46.7721 9.09ZM46.8621 4.95C46.5821 4.95 46.3388 5.02 46.1321 5.16C45.9254 5.29333 45.7654 5.43 45.6521 5.57V8.08C45.8054 8.19333 45.9688 8.27667 46.1421 8.33C46.3154 8.38333 46.4888 8.41 46.6621 8.41C46.8421 8.41 47.0221 8.38 47.2021 8.32C47.3821 8.25333 47.5421 8.14667 47.6821 8C47.8221 7.85333 47.9354 7.66333 48.0221 7.43C48.1088 7.19667 48.1521 6.91 48.1521 6.57C48.1521 6.07 48.0454 5.67667 47.8321 5.39C47.6254 5.09667 47.3021 4.95 46.8621 4.95ZM54.4446 6.6C54.4446 6.99333 54.3846 7.34667 54.2646 7.66C54.1446 7.96667 53.9779 8.22667 53.7646 8.44C53.5579 8.65333 53.3146 8.81667 53.0346 8.93C52.7546 9.03667 52.4513 9.09 52.1246 9.09C51.7979 9.09 51.4946 9.04 51.2146 8.94C50.9413 8.83333 50.7013 8.68 50.4946 8.48C50.2946 8.27333 50.1346 8.02333 50.0146 7.73C49.9013 7.43 49.8446 7.08667 49.8446 6.7C49.8446 6.30667 49.9046 5.95667 50.0246 5.65C50.1446 5.34333 50.3079 5.08667 50.5146 4.88C50.7279 4.66667 50.9746 4.50667 51.2546 4.4C51.5346 4.28667 51.8379 4.23 52.1646 4.23C52.4913 4.23 52.7913 4.28 53.0646 4.38C53.3446 4.48 53.5846 4.63 53.7846 4.83C53.9913 5.03 54.1513 5.28 54.2646 5.58C54.3846 5.87333 54.4446 6.21333 54.4446 6.6ZM53.5246 6.65C53.5246 6.33667 53.4846 6.07 53.4046 5.85C53.3246 5.63 53.2179 5.45 53.0846 5.31C52.9579 5.17 52.8113 5.07 52.6446 5.01C52.4779 4.94333 52.3079 4.91 52.1346 4.91C51.9613 4.91 51.7913 4.93667 51.6246 4.99C51.4579 5.04333 51.3113 5.13667 51.1846 5.27C51.0579 5.40333 50.9546 5.58333 50.8746 5.81C50.8013 6.03 50.7646 6.31 50.7646 6.65C50.7646 6.96333 50.8046 7.23333 50.8846 7.46C50.9646 7.68 51.0679 7.86 51.1946 8C51.3279 8.14 51.4779 8.24333 51.6446 8.31C51.8113 8.37667 51.9813 8.41 52.1546 8.41C52.3279 8.41 52.4979 8.38333 52.6646 8.33C52.8313 8.27 52.9779 8.17333 53.1046 8.04C53.2313 7.9 53.3313 7.72 53.4046 7.5C53.4846 7.27333 53.5246 6.99 53.5246 6.65ZM54.8966 4.3H55.8366L56.6366 7.26L56.8166 8.31H56.8566L57.0766 7.26L57.8866 4.3H58.8366L59.6666 7.26L59.8766 8.31H59.9166L60.1366 7.26L60.9166 4.3H61.8166L60.3866 9H59.3866L58.5866 6.12L58.3566 4.96L58.1166 6.12L57.2966 9H56.3466L54.8966 4.3ZM66.5369 6.75H63.1669V6.79C63.1669 7.31 63.3069 7.71 63.5869 7.99C63.8736 8.27 64.2603 8.41 64.7469 8.41C65.0003 8.41 65.2236 8.39 65.4169 8.35C65.6169 8.31 65.8336 8.24333 66.0669 8.15L66.2469 8.8C66.0536 8.88667 65.8236 8.95667 65.5569 9.01C65.2969 9.06333 65.0169 9.09 64.7169 9.09C64.3769 9.09 64.0569 9.04333 63.7569 8.95C63.4636 8.85667 63.2036 8.71333 62.9769 8.52C62.7503 8.32 62.5703 8.06667 62.4369 7.76C62.3103 7.45333 62.2469 7.08667 62.2469 6.66C62.2469 6.29333 62.3003 5.96 62.4069 5.66C62.5203 5.36 62.6769 5.10667 62.8769 4.9C63.0769 4.68667 63.3169 4.52333 63.5969 4.41C63.8836 4.29 64.2036 4.23 64.5569 4.23C64.8569 4.23 65.1269 4.28 65.3669 4.38C65.6136 4.48 65.8236 4.62 65.9969 4.8C66.1703 4.98 66.3036 5.19667 66.3969 5.45C66.4903 5.70333 66.5369 5.98333 66.5369 6.29V6.75ZM65.6269 6.12C65.6269 5.94667 65.6036 5.78667 65.5569 5.64C65.5169 5.48667 65.4503 5.35333 65.3569 5.24C65.2703 5.12667 65.1569 5.03667 65.0169 4.97C64.8769 4.90333 64.7069 4.87 64.5069 4.87C64.1403 4.87 63.8403 4.98667 63.6069 5.22C63.3803 5.45333 63.2403 5.76 63.1869 6.14L65.6269 6.12ZM67.556 9V4.3H68.216L68.366 5.24C68.4793 4.94 68.666 4.69667 68.926 4.51C69.186 4.32333 69.486 4.23 69.826 4.23C69.9993 4.23 70.1427 4.24333 70.256 4.27C70.3693 4.29667 70.4727 4.33 70.566 4.37L70.396 5.14C70.316 5.1 70.226 5.06667 70.126 5.04C70.0327 5.01333 69.9193 5 69.786 5C69.5927 5 69.4127 5.03333 69.246 5.1C69.086 5.16667 68.9427 5.26667 68.816 5.4C68.696 5.53333 68.5993 5.7 68.526 5.9C68.4593 6.09333 68.426 6.31667 68.426 6.57V9H67.556ZM75.0526 6.75H71.6826V6.79C71.6826 7.31 71.8226 7.71 72.1026 7.99C72.3892 8.27 72.7759 8.41 73.2626 8.41C73.5159 8.41 73.7392 8.39 73.9326 8.35C74.1326 8.31 74.3492 8.24333 74.5826 8.15L74.7626 8.8C74.5692 8.88667 74.3392 8.95667 74.0726 9.01C73.8126 9.06333 73.5326 9.09 73.2326 9.09C72.8926 9.09 72.5726 9.04333 72.2726 8.95C71.9792 8.85667 71.7192 8.71333 71.4926 8.52C71.2659 8.32 71.0859 8.06667 70.9526 7.76C70.8259 7.45333 70.7626 7.08667 70.7626 6.66C70.7626 6.29333 70.8159 5.96 70.9226 5.66C71.0359 5.36 71.1926 5.10667 71.3926 4.9C71.5926 4.68667 71.8326 4.52333 72.1126 4.41C72.3992 4.29 72.7192 4.23 73.0726 4.23C73.3726 4.23 73.6426 4.28 73.8826 4.38C74.1292 4.48 74.3392 4.62 74.5126 4.8C74.6859 4.98 74.8192 5.19667 74.9126 5.45C75.0059 5.70333 75.0526 5.98333 75.0526 6.29V6.75ZM74.1426 6.12C74.1426 5.94667 74.1192 5.78667 74.0726 5.64C74.0326 5.48667 73.9659 5.35333 73.8726 5.24C73.7859 5.12667 73.6726 5.03667 73.5326 4.97C73.3926 4.90333 73.2226 4.87 73.0226 4.87C72.6559 4.87 72.3559 4.98667 72.1226 5.22C71.8959 5.45333 71.7559 5.76 71.7026 6.14L74.1426 6.12ZM79.2604 1.9H80.1404V9H79.4004L79.2904 8.48H79.2604C79.0538 8.69333 78.8438 8.85 78.6304 8.95C78.4238 9.04333 78.1604 9.09 77.8404 9.09C77.5871 9.09 77.3404 9.04 77.1004 8.94C76.8671 8.84 76.6571 8.69 76.4704 8.49C76.2838 8.29 76.1338 8.04 76.0204 7.74C75.9071 7.43333 75.8504 7.07333 75.8504 6.66C75.8504 6.29333 75.8971 5.96 75.9904 5.66C76.0904 5.36 76.2304 5.10333 76.4104 4.89C76.5904 4.67667 76.8104 4.51333 77.0704 4.4C77.3304 4.28667 77.6271 4.23 77.9604 4.23C78.2071 4.23 78.4404 4.27 78.6604 4.35C78.8871 4.42333 79.0871 4.53667 79.2604 4.69V1.9ZM79.2604 5.43C78.9471 5.07667 78.5771 4.9 78.1504 4.9C77.9704 4.9 77.7938 4.93333 77.6204 5C77.4538 5.06 77.3038 5.16 77.1704 5.3C77.0438 5.44 76.9404 5.62 76.8604 5.84C76.7804 6.06 76.7404 6.32333 76.7404 6.63C76.7404 6.95 76.7771 7.22333 76.8504 7.45C76.9238 7.67 77.0204 7.85333 77.1404 8C77.2671 8.14 77.4071 8.24333 77.5604 8.31C77.7204 8.37667 77.8804 8.41 78.0404 8.41C78.5404 8.41 78.9471 8.19333 79.2604 7.76V5.43ZM88.0586 6.65C88.0586 7.02333 88.0019 7.36 87.8886 7.66C87.7752 7.96 87.6219 8.21667 87.4286 8.43C87.2352 8.64333 87.0086 8.80667 86.7486 8.92C86.4886 9.03333 86.2119 9.09 85.9186 9.09C85.6119 9.09 85.3419 9.04667 85.1086 8.96C84.8819 8.87333 84.6686 8.74 84.4686 8.56H84.4486L84.3586 9H83.7286V1.9H84.5986V4.89C84.8119 4.66333 85.0452 4.49667 85.2986 4.39C85.5586 4.28333 85.8286 4.23 86.1086 4.23C86.7086 4.23 87.1819 4.44333 87.5286 4.87C87.8819 5.29667 88.0586 5.89 88.0586 6.65ZM87.1386 6.66C87.1386 6.14 87.0286 5.72667 86.8086 5.42C86.5886 5.10667 86.2786 4.95 85.8786 4.95C85.6252 4.95 85.3952 5.00667 85.1886 5.12C84.9819 5.23333 84.7852 5.39333 84.5986 5.6V7.88C84.7386 8.04 84.8952 8.17 85.0686 8.27C85.2486 8.36333 85.4552 8.41 85.6886 8.41C85.8752 8.41 86.0552 8.37667 86.2286 8.31C86.4086 8.24333 86.5652 8.14 86.6986 8C86.8319 7.85333 86.9386 7.67 87.0186 7.45C87.0986 7.23 87.1386 6.96667 87.1386 6.66ZM88.4801 4.3H89.4201L90.4201 6.99L90.7601 8.11H90.7801L91.1201 6.99L92.0301 4.3H92.9301L91.1201 9.4C90.9201 9.96667 90.6668 10.41 90.3601 10.73C90.0601 11.05 89.7001 11.2833 89.2801 11.43L88.9001 10.73C89.2135 10.61 89.4901 10.4367 89.7301 10.21C89.9768 9.98333 90.1668 9.67 90.3001 9.27L90.3901 9L88.4801 4.3Z" fill="white"/>
<g opacity="0.3" clip-path="url(#clip0_67_874)">
<path d="M23.4276 12.5423L15.6788 23.289C15.523 23.5055 15.3153 23.6831 15.0731 23.8068C14.8309 23.9305 14.5612 23.9968 14.2868 24.0001H6.64932C3.21108 24.0001 0.209002 21.3068 0.199722 18.0135C0.197892 17.2244 0.358569 16.4428 0.672544 15.7133C0.98652 14.9838 1.44762 14.3208 2.02947 13.7622C2.61132 13.2036 3.30249 12.7605 4.06338 12.4581C4.82427 12.1558 5.63994 12.0001 6.46371 12.0001H11.8554C11.8895 11.9999 11.923 12.0087 11.9522 12.0255C11.9814 12.0423 12.0053 12.0665 12.0211 12.0954C12.0369 12.1243 12.0441 12.1569 12.0419 12.1895C12.0397 12.222 12.0281 12.2534 12.0085 12.2801L11.3543 13.169L9.82771 15.289C9.78482 15.3514 9.72621 15.4025 9.65728 15.4374C9.58834 15.4724 9.51131 15.4901 9.43332 15.489H6.15284C5.89809 15.488 5.64465 15.5239 5.40116 15.5957C4.79592 15.7628 4.27449 16.1346 3.93356 16.6419C3.59262 17.1492 3.45532 17.7578 3.5471 18.3547C3.63888 18.9516 3.95351 19.4964 4.43266 19.888C4.91182 20.2797 5.52298 20.4916 6.15284 20.4846C6.6251 20.4847 7.0903 20.3747 7.50825 20.1641C7.92619 19.9535 8.28432 19.6486 8.55171 19.2757L13.4608 12.4712C13.5663 12.3228 13.7082 12.2015 13.874 12.1178C14.0399 12.0341 14.2246 11.9906 14.412 11.9912H17.326C17.3917 11.9916 17.456 12.009 17.5121 12.0417C17.5683 12.0744 17.6141 12.1211 17.6446 12.1769C17.6751 12.2326 17.6892 12.2952 17.6854 12.358C17.6816 12.4209 17.66 12.4815 17.6229 12.5335L12.3658 19.8268C12.3285 19.8913 12.3085 19.9637 12.3077 20.0375C12.3069 20.1113 12.3253 20.1841 12.3612 20.2494C12.3971 20.3146 12.4494 20.3703 12.5134 20.4114C12.5774 20.4524 12.651 20.4776 12.7277 20.4846H13.2567C13.328 20.4852 13.3984 20.4689 13.4616 20.4371C13.5248 20.4053 13.5787 20.359 13.6186 20.3024L19.2655 12.4712C19.371 12.3228 19.5128 12.2015 19.6787 12.1178C19.8445 12.0341 20.0292 11.9906 20.2167 11.9912H23.1306C23.1978 11.9904 23.2639 12.0075 23.3216 12.0407C23.3792 12.0738 23.4261 12.1217 23.4569 12.1789C23.4877 12.2361 23.5013 12.3004 23.4961 12.3646C23.491 12.4288 23.4672 12.4904 23.4276 12.5423Z" fill="white"/>
<path d="M6.1019 19.9421C7.22176 19.9421 8.12958 19.0725 8.12958 17.9998C8.12958 16.9272 7.22176 16.0576 6.1019 16.0576C4.98204 16.0576 4.07422 16.9272 4.07422 17.9998C4.07422 19.0725 4.98204 19.9421 6.1019 19.9421Z" fill="white"/>
<path d="M64.3618 22.7466C63.6333 23.7066 62.5429 23.9954 61.2808 23.711C60.7004 23.5972 60.1702 23.3161 59.7613 22.9054C59.3524 22.4946 59.0844 21.974 58.9933 21.4132C58.9134 20.997 58.8777 20.5741 58.8866 20.151C58.8866 18.8888 58.8866 17.6265 58.8866 16.3688C58.8866 15.7332 59.2624 15.3288 59.8378 15.3332C60.4131 15.3377 60.7379 15.7154 60.7426 16.3599C60.7426 17.6932 60.7426 19.0266 60.7426 20.391C60.7396 20.6629 60.7771 20.9337 60.8539 21.1955C60.9311 21.4639 61.1024 21.6988 61.3389 21.8606C61.5755 22.0225 61.863 22.1015 62.1531 22.0843C62.4564 22.0819 62.7498 21.9806 62.9851 21.7973C63.2203 21.6139 63.3835 21.3594 63.4477 21.0754C63.4974 20.8611 63.5192 20.6416 63.5126 20.4221C63.5126 19.0266 63.5126 17.6265 63.5126 16.231C63.5027 16.0211 63.5731 15.8149 63.7107 15.6512C63.8483 15.4876 64.0435 15.3776 64.2597 15.3421C64.4647 15.2994 64.6789 15.3279 64.8642 15.4223C65.0494 15.5167 65.1936 15.671 65.2712 15.8577C65.3343 16.0379 65.3626 16.2277 65.3547 16.4177C65.3547 17.791 65.3547 19.1599 65.3547 20.5332C65.3547 21.3821 65.7538 21.9021 66.4544 22.0354C66.632 22.079 66.817 22.0866 66.9978 22.0575C67.1786 22.0285 67.351 21.9635 67.5039 21.8668C67.6569 21.7701 67.7871 21.6438 67.886 21.496C67.985 21.3483 68.0505 21.1823 68.0784 21.0088C68.1164 20.793 68.1335 20.5743 68.1295 20.3554C68.1295 18.9821 68.1295 17.6132 68.1295 16.2399C68.1185 16.0338 68.185 15.8308 68.3169 15.6677C68.4489 15.5046 68.6376 15.3922 68.8486 15.351C69.0538 15.3104 69.2673 15.3376 69.4543 15.4279C69.6413 15.5183 69.7909 15.6666 69.8787 15.8488C69.9378 15.9715 69.9694 16.1047 69.9715 16.2399C69.9715 17.7777 70.004 19.311 69.9715 20.8443C69.9736 21.3203 69.8559 21.7897 69.6286 22.2129C69.4012 22.6361 69.0708 23.0006 68.6653 23.2757C68.2598 23.5508 67.7912 23.7283 67.2989 23.7932C66.8067 23.8582 66.3053 23.8086 65.8373 23.6488C65.3086 23.4073 64.813 23.1043 64.3618 22.7466Z" fill="white"/>
<path d="M24.541 17.9733C24.5454 17.0973 24.5965 16.2221 24.6941 15.3511C24.9818 13.6 26.5501 12.3289 28.55 12.1645C29.4375 12.0992 30.3233 12.31 31.0757 12.7657C31.8281 13.2213 32.4069 13.8974 32.726 14.6933C33.0554 15.5556 32.6007 16.2178 31.7284 16.0889C31.4857 16.0238 31.2681 15.8926 31.102 15.7111C30.9498 15.53 30.8191 15.3332 30.7122 15.1244C30.4697 14.7191 30.094 14.402 29.6436 14.2227C29.1932 14.0434 28.6935 14.0119 28.2225 14.1332C27.7514 14.2545 27.3356 14.5217 27.0398 14.8932C26.744 15.2647 26.5849 15.7195 26.5873 16.1867C26.5873 17.4045 26.5873 18.6252 26.5873 19.8489C26.5942 20.3279 26.7699 20.7907 27.086 21.162C27.4021 21.5333 27.8399 21.7914 28.3284 21.8944C28.8169 21.9973 29.3273 21.9391 29.7769 21.7291C30.2265 21.5192 30.5888 21.1698 30.805 20.7378C30.9267 20.4893 31.0828 20.2576 31.269 20.0489C31.4026 19.9123 31.5791 19.8211 31.7716 19.7891C31.9641 19.757 32.1623 19.7858 32.3362 19.8711C32.5091 19.9265 32.6563 20.0383 32.7521 20.1869C32.8479 20.3355 32.8862 20.5115 32.8605 20.6844C32.8197 21.0357 32.7145 21.3772 32.5497 21.6933C32.1434 22.4728 31.4777 23.1003 30.6576 23.477C29.8375 23.8536 28.9098 23.9579 28.021 23.7733C27.1197 23.6168 26.298 23.1786 25.6844 22.5272C25.0707 21.8759 24.6996 21.0481 24.6292 20.1734C24.5874 19.4489 24.6292 18.72 24.6292 17.9911L24.541 17.9733Z" fill="white"/>
<path d="M76.7228 22.8043C76.677 22.8304 76.6336 22.8602 76.5929 22.8932C76.2009 23.3176 75.6801 23.6139 75.1035 23.7406C74.5269 23.8673 73.9233 23.8181 73.3774 23.5998C72.8007 23.402 72.3003 23.0411 71.9424 22.5649C71.5845 22.0888 71.3859 21.5198 71.3729 20.9331C71.3126 20.017 71.3126 19.0982 71.3729 18.182C71.4834 17.3209 71.936 16.5337 72.6367 15.984C73.3374 15.4342 74.2323 15.1641 75.1354 15.2299C76.0386 15.2957 76.8805 15.6923 77.4864 16.3373C78.0922 16.9822 78.4153 17.8259 78.3886 18.6932C78.3886 20.0532 78.3886 21.4087 78.3886 22.7643C78.3886 23.4265 77.9895 23.7731 77.377 23.6798C77.0244 23.6131 76.8899 23.462 76.7228 22.8043ZM76.5186 19.5332C76.5186 19.1509 76.5186 18.7687 76.5186 18.382C76.4913 17.9816 76.3039 17.6067 75.9954 17.3352C75.6869 17.0637 75.281 16.9165 74.8622 16.9242C74.443 16.9158 74.0372 17.0651 73.7318 17.3402C73.4264 17.6153 73.2458 17.9942 73.2289 18.3954C73.2057 19.1332 73.2057 19.8754 73.2289 20.6176C73.2337 20.8168 73.2796 21.0132 73.3639 21.1953C73.4483 21.3775 73.5694 21.5419 73.7203 21.679C73.8713 21.8162 74.0491 21.9234 74.2434 21.9944C74.4378 22.0655 74.6449 22.0991 74.8529 22.0931C75.2785 22.1052 75.692 21.9562 76.0038 21.6783C76.3156 21.4005 76.5005 21.0162 76.5186 20.6087C76.5279 20.2487 76.5186 19.8887 76.5186 19.5332Z" fill="white"/>
<path d="M87.7937 20.1246C87.7204 20.4844 87.768 20.8572 87.9298 21.1894C88.0915 21.5216 88.359 21.7961 88.6939 21.9736C89.0524 22.1365 89.455 22.1885 89.8457 22.1224C90.2365 22.0563 90.5961 21.8753 90.8747 21.6047C90.9882 21.4795 91.1325 21.3834 91.2945 21.3252C91.4566 21.267 91.6313 21.2485 91.8027 21.2713C91.9096 21.2797 92.0131 21.3111 92.1055 21.3633C92.1979 21.4155 92.2767 21.487 92.3361 21.5725C92.3955 21.6581 92.4339 21.7554 92.4484 21.8572C92.4629 21.959 92.4531 22.0626 92.4198 22.1602C92.33 22.4053 92.1895 22.6305 92.0069 22.8224C91.5088 23.2795 90.8862 23.5925 90.2105 23.7253C89.5349 23.8582 88.8339 23.8056 88.1881 23.5735C87.5464 23.3448 86.992 22.9354 86.5978 22.3991C86.2035 21.8629 85.988 21.2249 85.9795 20.5691C85.9795 19.8713 85.9795 19.1691 85.9795 18.4713C85.983 18.0345 86.0774 17.6027 86.2571 17.2011C86.4368 16.7996 86.6982 16.4364 87.026 16.1327C87.3539 15.829 87.7416 15.5909 88.1666 15.4323C88.5916 15.2738 89.0453 15.1979 89.5012 15.2091C90.4205 15.2112 91.3023 15.558 91.958 16.1752C92.6136 16.7924 92.9909 17.631 93.0091 18.5113C93.0091 18.7735 93.0091 19.0313 93.0091 19.2935C93.0091 19.8891 92.791 20.1158 92.16 20.1202C90.9582 20.1202 89.7564 20.1202 88.5547 20.1202L87.7937 20.1246ZM91.1763 18.7202C91.2437 18.4002 91.208 18.0681 91.0737 17.768C90.9394 17.468 90.713 17.2141 90.4246 17.0402C90.1486 16.8529 89.8186 16.7523 89.4804 16.7523C89.1421 16.7523 88.8121 16.8529 88.5361 17.0402C88.2528 17.2193 88.0299 17.4735 87.8948 17.7718C87.7597 18.0701 87.7181 18.3997 87.7752 18.7202H91.1763Z" fill="white"/>
<path d="M44.8737 19.6891C44.8515 20.3294 44.7661 20.9663 44.6185 21.5913C44.3538 22.323 43.8327 22.9444 43.1437 23.3498C42.4548 23.7551 41.6405 23.9193 40.8394 23.8146C40.0384 23.7098 39.2999 23.3425 38.7495 22.7752C38.1992 22.2078 37.8711 21.4753 37.8209 20.7024C37.7791 19.9088 37.7791 19.1137 37.8209 18.3202C37.8787 17.5292 38.2267 16.7833 38.8033 16.2143C39.38 15.6454 40.1481 15.2902 40.9718 15.2114C41.7955 15.1327 42.6218 15.3355 43.3044 15.7841C43.9871 16.2326 44.4821 16.8979 44.702 17.6624C44.8124 18.3328 44.8698 19.0103 44.8737 19.6891ZM39.6583 19.5157C39.6583 19.8579 39.6583 20.2002 39.6583 20.5424C39.665 20.9376 39.8251 21.3162 40.1073 21.6046C40.3894 21.893 40.7736 22.0704 41.1849 22.1024C41.3887 22.1278 41.5958 22.114 41.794 22.0618C41.9922 22.0096 42.1776 21.92 42.3392 21.7983C42.5008 21.6766 42.6354 21.5252 42.7352 21.3531C42.835 21.1809 42.8979 20.9915 42.9202 20.7957C43.006 19.9652 43.006 19.1285 42.9202 18.2979C42.8858 17.9081 42.694 17.5464 42.3855 17.2899C42.077 17.0335 41.6762 16.9024 41.2684 16.9246C40.8699 16.9347 40.4886 17.0816 40.1939 17.3386C39.8991 17.5956 39.7107 17.9456 39.663 18.3246C39.6343 18.7211 39.6312 19.1189 39.6537 19.5157H39.6583Z" fill="white"/>
<path d="M34.4845 17.9202C34.4845 16.3602 34.4845 14.8091 34.4845 13.2358C34.4845 12.5913 34.8464 12.2002 35.4125 12.2046C35.5465 12.2033 35.6793 12.2298 35.8017 12.2823C35.924 12.3348 36.0331 12.4121 36.1213 12.5088C36.2094 12.6055 36.2747 12.7194 36.3126 12.8426C36.3504 12.9658 36.3599 13.0954 36.3405 13.2224C36.3405 16.375 36.3405 19.5261 36.3405 22.6757C36.3577 22.8018 36.3466 22.9299 36.3077 23.0515C36.2689 23.1731 36.2033 23.2852 36.1153 23.3804C36.0274 23.4756 35.9191 23.5517 35.7979 23.6034C35.6766 23.6551 35.5452 23.6813 35.4125 23.6802C34.8186 23.6802 34.4845 23.3069 34.4845 22.6447C34.4798 21.0713 34.4845 19.4935 34.4845 17.9202Z" fill="white"/>
<path d="M79.9104 20.2623C79.8524 19.3328 79.8524 18.4008 79.9104 17.4712C80.0914 16.0224 81.2096 15.1957 82.7362 15.2179C83.217 15.2008 83.6954 15.2896 84.1347 15.4776C84.5739 15.6657 84.9622 15.9478 85.2696 16.3023C85.4012 16.4417 85.4834 16.6174 85.5042 16.8043C85.5251 16.9911 85.4835 17.1795 85.3856 17.3423C85.3191 17.4898 85.1999 17.6097 85.0494 17.6806C84.8988 17.7514 84.7269 17.7686 84.5643 17.729C84.3643 17.6627 84.1765 17.5667 84.0076 17.4446C83.8168 17.3046 83.6134 17.1811 83.3997 17.0757C82.4485 16.7112 81.7154 17.169 81.7015 18.1468C81.7015 19.6534 81.7015 21.1601 81.7015 22.6712C81.7015 23.2535 81.4045 23.6224 80.9127 23.6712C80.7745 23.6924 80.6331 23.6833 80.4991 23.6447C80.3651 23.6061 80.242 23.539 80.1389 23.4483C80.0358 23.3577 79.9555 23.246 79.9038 23.1214C79.8522 22.9968 79.8307 22.8627 79.8408 22.729C79.8408 21.9068 79.8408 21.0846 79.8408 20.2623H79.9104Z" fill="white"/>
<path d="M51.5694 14.5066C51.226 14.8221 50.7667 14.7732 50.3027 14.3999C50.1099 14.2386 49.8903 14.1095 49.653 14.0177C49.4783 13.9324 49.2832 13.893 49.0874 13.9035C48.8916 13.914 48.7022 13.974 48.5386 14.0775C48.3749 14.1809 48.2428 14.3241 48.1558 14.4924C48.0687 14.6607 48.0298 14.8481 48.043 15.0354C48.043 15.3954 48.043 16.1199 48.043 16.9066V20.9066C48.043 21.4977 48.043 22.0888 48.043 22.6843C48.043 23.2799 47.6903 23.6843 47.115 23.6843C46.9827 23.6853 46.8517 23.6592 46.7308 23.6078C46.61 23.5563 46.502 23.4807 46.4141 23.386C46.3262 23.2913 46.2605 23.1797 46.2213 23.0587C46.1821 22.9377 46.1704 22.8101 46.187 22.6843V15.0488C46.187 13.0355 47.6903 11.8621 49.7644 12.231C50.462 12.3429 51.0979 12.682 51.5647 13.191C51.6565 13.2764 51.7295 13.3785 51.7796 13.4913C51.8296 13.6041 51.8556 13.7253 51.856 13.8479C51.8565 13.9704 51.8313 14.0918 51.7821 14.2049C51.7329 14.3181 51.6605 14.4206 51.5694 14.5066Z" fill="white"/>
<path d="M58.014 21.3556C57.6752 21.04 57.2159 21.0889 56.7519 21.4622C56.5582 21.6245 56.3369 21.7538 56.0976 21.8444C55.9233 21.9301 55.7282 21.9698 55.5325 21.9594C55.3368 21.949 55.1475 21.889 54.9841 21.7853C54.8207 21.6817 54.689 21.5383 54.6026 21.3698C54.5161 21.2014 54.478 21.0139 54.4922 20.8267C54.4922 20.4667 54.4922 19.7422 54.4922 18.9555V14.9555C54.4922 14.3644 54.4922 13.7733 54.4922 13.1778C54.4922 12.5822 54.1395 12.1778 53.5642 12.1778C53.4319 12.1768 53.301 12.2029 53.1801 12.2543C53.0592 12.3058 52.9512 12.3814 52.8633 12.4761C52.7754 12.5708 52.7097 12.6824 52.6705 12.8034C52.6314 12.9244 52.6196 13.0521 52.6362 13.1778V20.7911C52.6362 22.8044 54.1396 23.9778 56.209 23.6089C56.9079 23.4969 57.5452 23.1579 58.014 22.6489C58.1927 22.4772 58.2931 22.2447 58.2931 22.0022C58.2931 21.7598 58.1927 21.5272 58.014 21.3556Z" fill="white"/>
<path d="M55.4527 15.7109H51.9123C51.4664 15.7109 51.105 16.0572 51.105 16.4843V16.4887C51.105 16.9158 51.4664 17.262 51.9123 17.262H55.4527C55.8986 17.262 56.26 16.9158 56.26 16.4887V16.4843C56.26 16.0572 55.8986 15.7109 55.4527 15.7109Z" fill="white"/>
<path d="M49.5043 15.7109H45.3933C44.9474 15.7109 44.5859 16.0572 44.5859 16.4843V16.4887C44.5859 16.9158 44.9474 17.262 45.3933 17.262H49.5043C49.9502 17.262 50.3117 16.9158 50.3117 16.4887V16.4843C50.3117 16.0572 49.9502 15.7109 49.5043 15.7109Z" fill="white"/>
</g>
<defs>
<clipPath id="clip0_67_874">
<rect width="92.8" height="12" fill="white" transform="translate(0.199707 12)"/>
</clipPath>
</defs>
</svg>
